<?xml version="1.0" standalone="yes"?>

<svg version="1.1" viewBox="0.0 0.0 1157.6561679790027 609.5643044619422" fill="none" stroke="none" stroke-linecap="square" stroke-miterlimit="10" xmlns="http://www.w3.org/2000/svg" xmlns:xlink="http://www.w3.org/1999/xlink"><clipPath id="p.0"><path d="m0 0l1157.6561 0l0 609.56433l-1157.6561 0l0 -609.56433z" clip-rule="nonzero"></path></clipPath><g clip-path="url(#p.0)"><path fill="#000000" fill-opacity="0.0" d="m0 0l1157.6561 0l0 609.56433l-1157.6561 0z" fill-rule="nonzero"></path><path fill="#efefef" d="m269.50525 23.164333l0 0c0 -3.2551613 2.6388245 -5.8939915 5.893982 -5.8939915l606.85767 0c1.5632324 0 3.062378 0.6209717 4.1677246 1.7263088c1.1053467 1.105339 1.7263184 2.604498 1.7263184 4.1676826l0 563.23566c0 3.255188 -2.638855 5.893982 -5.894043 5.893982l-606.85767 0c-3.2551575 0 -5.893982 -2.638794 -5.893982 -5.893982z" fill-rule="nonzero"></path><path stroke="#959493" stroke-width="1.0" stroke-linejoin="round" stroke-linecap="butt" d="m269.50525 23.164333l0 0c0 -3.2551613 2.6388245 -5.8939915 5.893982 -5.8939915l606.85767 0c1.5632324 0 3.062378 0.6209717 4.1677246 1.7263088c1.1053467 1.105339 1.7263184 2.604498 1.7263184 4.1676826l0 563.23566c0 3.255188 -2.638855 5.893982 -5.894043 5.893982l-606.85767 0c-3.2551575 0 -5.893982 -2.638794 -5.893982 -5.893982z" fill-rule="nonzero"></path><path fill="#ffffff" d="m321.1299 498.98553l0 0c0 -2.7766418 2.250885 -5.027527 5.027527 -5.027527l209.85043 0c1.333374 0 2.6121826 0.5296936 3.5549927 1.4725342c0.9428711 0.9428406 1.4725342 2.2216187 1.4725342 3.5549927l0 57.97644c0 2.7766113 -2.2509155 5.027527 -5.027527 5.027527l-209.85043 0c-2.7766418 0 -5.027527 -2.2509155 -5.027527 -5.027527z" fill-rule="nonzero"></path><path stroke="#959493" stroke-width="1.0" stroke-linejoin="round" stroke-linecap="butt" d="m321.1299 498.98553l0 0c0 -2.7766418 2.250885 -5.027527 5.027527 -5.027527l209.85043 0c1.333374 0 2.6121826 0.5296936 3.5549927 1.4725342c0.9428711 0.9428406 1.4725342 2.2216187 1.4725342 3.5549927l0 57.97644c0 2.7766113 -2.2509155 5.027527 -5.027527 5.027527l-209.85043 0c-2.7766418 0 -5.027527 -2.2509155 -5.027527 -5.027527z" fill-rule="nonzero"></path><path fill="#959493" d="m403.1123 539.33435q-3.296875 0.671875 -5.921875 0.671875q-2.625 0 -4.25 -0.71875q-1.609375 -0.71875 -2.484375 -2.234375q-0.875 -1.515625 -1.21875 -3.484375q-0.328125 -1.96875 -0.328125 -4.90625q0 -2.953125 0.328125 -4.953125q0.34375 -2.0 1.21875 -3.53125q0.875 -1.546875 2.46875 -2.25q1.609375 -0.703125 4.171875 -0.703125q2.5625 0 6.015625 0.703125l-0.09375 2.078125q-3.234375 -0.5625 -5.765625 -0.5625q-3.515625 0 -4.65625 2.09375q-1.125 2.09375 -1.125 7.140625q0 2.53125 0.203125 4.078125q0.203125 1.53125 0.8125 2.765625q0.609375 1.234375 1.78125 1.765625q1.171875 0.515625 3.421875 0.515625q2.25 0 5.328125 -0.578125l0.09375 2.109375zm14.908051 -10.8125l0 8.203125q0.109375 1.171875 1.859375 1.40625l-0.09375 1.875q-2.53125 0 -3.8125 -1.265625q-2.875 1.265625 -5.75 1.265625q-2.21875 0 -3.375 -1.234375q-1.140625 -1.25 -1.140625 -3.578125q0 -2.34375 1.171875 -3.453125q1.1875 -1.109375 3.71875 -1.359375l5.03125 -0.484375l0 -1.375q0 -1.625 -0.703125 -2.328125q-0.703125 -0.703125 -1.921875 -0.703125q-2.5625 0 -5.3125 0.3125l-1.0 0.09375l-0.09375 -1.8125q3.53125 -0.703125 6.25 -0.703125q2.71875 0 3.9375 1.25q1.234375 1.234375 1.234375 3.890625zm-9.84375 6.53125q0 2.9375 2.421875 2.9375q2.1875 0 4.296875 -0.734375l0.734375 -0.25l0 -5.28125l-4.734375 0.453125q-1.4375 0.125 -2.078125 0.828125q-0.640625 0.703125 -0.640625 2.046875zm16.985138 4.640625l-2.40625 0l0 -16.0l2.375 0l0 1.125q2.59375 -1.4375 4.953125 -1.4375q3.203125 0 4.3125 1.734375q1.109375 1.71875 1.109375 6.125l0 8.453125l-2.375 0l0 -8.390625q0 -3.328125 -0.65625 -4.546875q-0.65625 -1.234375 -2.796875 -1.234375q-1.03125 0 -2.171875 0.3125q-1.125 0.296875 -1.734375 0.578125l-0.609375 0.296875l0 12.984375zm20.762177 -16.3125q1.0625 0 3.59375 0.375l0.765625 0.09375l-0.09375 1.953125q-2.5625 -0.28125 -3.78125 -0.28125q-2.71875 0 -3.703125 1.296875q-0.96875 1.296875 -0.96875 4.796875q0 3.5 0.90625 4.875q0.921875 1.375 3.796875 1.375l3.78125 -0.28125l0.09375 1.984375q-2.96875 0.4375 -4.453125 0.4375q-3.734375 0 -5.171875 -1.90625q-1.421875 -1.921875 -1.421875 -6.484375q0 -4.5625 1.53125 -6.390625q1.546875 -1.84375 5.125 -1.84375zm18.858276 14.328125l0.921875 -0.09375l0.0625 1.890625q-3.640625 0.5 -6.234375 0.5q-3.453125 0 -4.90625 -2.0q-1.4375 -2.0 -1.4375 -6.21875q0 -8.40625 6.6875 -8.40625q3.234375 0 4.828125 1.8125q1.609375 1.796875 1.609375 5.671875l-0.125 1.8125l-10.5625 0q0 2.65625 0.953125 3.9375q0.96875 1.28125 3.34375 1.28125q2.390625 0 4.859375 -0.1875zm-0.875 -6.9375q0 -2.953125 -0.9375 -4.15625q-0.9375 -1.21875 -3.078125 -1.21875q-2.125 0 -3.203125 1.28125q-1.0625 1.265625 -1.09375 4.09375l8.3125 0zm6.347534 8.921875l0 -22.96875l2.390625 0l0 22.96875l-2.390625 0z" fill-rule="nonzero"></path><path fill="#ffffff" d="m493.61963 121.620705l0 0c0 -2.7766266 2.2509155 -5.027527 5.027527 -5.027527l335.3938 0c1.333374 0 2.6121216 0.529686 3.5549927 1.4725266c0.94281006 0.9428482 1.4725342 2.2216187 1.4725342 3.5550003l0 57.976433c0 2.7766266 -2.2509155 5.027527 -5.027527 5.027527l-335.3938 0c-2.7766113 0 -5.027527 -2.2509003 -5.027527 -5.027527z" fill-rule="nonzero"></path><path stroke="#959493" stroke-width="1.0" stroke-linejoin="round" stroke-linecap="butt" d="m493.61963 121.620705l0 0c0 -2.7766266 2.2509155 -5.027527 5.027527 -5.027527l335.3938 0c1.333374 0 2.6121216 0.529686 3.5549927 1.4725266c0.94281006 0.9428482 1.4725342 2.2216187 1.4725342 3.5550003l0 57.976433c0 2.7766266 -2.2509155 5.027527 -5.027527 5.027527l-335.3938 0c-2.7766113 0 -5.027527 -2.2509003 -5.027527 -5.027527z" fill-rule="nonzero"></path><path fill="#959493" d="m506.8109 140.1883l8.03125 0q3.296875 0 4.9375 1.359375q1.65625 1.359375 1.65625 4.265625q0 2.078125 -0.71875 3.25q-0.71875 1.171875 -2.125 1.84375q3.515625 1.21875 3.515625 5.21875q0 3.328125 -1.765625 4.765625q-1.75 1.4375 -5.078125 1.4375l-8.453125 0l0 -22.140625zm8.1875 11.96875l-5.71875 0l0 8.0l5.890625 0q2.171875 0 3.296875 -0.90625q1.140625 -0.921875 1.140625 -3.21875q0 -1.21875 -0.46875 -2.046875q-0.453125 -0.84375 -1.21875 -1.1875q-1.40625 -0.640625 -2.921875 -0.640625zm-0.25 -9.796875l-5.46875 0l0 7.65625l5.6875 0q2.046875 0 2.984375 -0.96875q0.953125 -0.984375 0.953125 -2.953125q0 -1.96875 -1.015625 -2.84375q-1.0 -0.890625 -3.140625 -0.890625zm22.243286 17.984375l0.921875 -0.09375l0.0625 1.890625q-3.640625 0.5 -6.234375 0.5q-3.453125 0 -4.90625 -2.0q-1.4375 -2.0 -1.4375 -6.21875q0 -8.40625 6.6875 -8.40625q3.234375 0 4.828125 1.8125q1.609375 1.796875 1.609375 5.671875l-0.125 1.8125l-10.5625 0q0 2.65625 0.953125 3.9375q0.96875 1.28125 3.34375 1.28125q2.390625 0 4.859375 -0.1875zm-0.875 -6.9375q0 -2.953125 -0.9375 -4.15625q-0.9375 -1.21875 -3.078125 -1.21875q-2.125 0 -3.203125 1.28125q-1.0625 1.265625 -1.09375 4.09375l8.3125 0zm11.175659 -5.25q-3.484375 0 -3.484375 2.421875q0 1.125 0.796875 1.59375q0.796875 0.453125 3.640625 0.953125q2.859375 0.5 4.03125 1.40625q1.1875 0.890625 1.1875 3.359375q0 2.453125 -1.578125 3.609375q-1.578125 1.140625 -4.625 1.140625q-1.984375 0 -4.671875 -0.4375l-0.96875 -0.15625l0.140625 -2.09375q3.640625 0.546875 5.5 0.546875q1.859375 0 2.828125 -0.59375q0.984375 -0.59375 0.984375 -1.984375q0 -1.390625 -0.84375 -1.875q-0.828125 -0.5 -3.640625 -0.953125q-2.8125 -0.453125 -4.0 -1.3125q-1.1875 -0.859375 -1.1875 -3.1875q0 -2.34375 1.640625 -3.453125q1.65625 -1.125 4.125 -1.125q1.953125 0 4.890625 0.4375l0.890625 0.15625l-0.0625 2.0625q-3.546875 -0.515625 -5.59375 -0.515625zm18.14563 0.25l-5.09375 0l0 7.65625q0 2.75 0.390625 3.609375q0.40625 0.859375 1.921875 0.859375l2.84375 -0.1875l0.15625 1.984375q-2.140625 0.359375 -3.265625 0.359375q-2.484375 0 -3.453125 -1.21875q-0.953125 -1.21875 -0.953125 -4.640625l0 -8.421875l-2.28125 0l0 -2.078125l2.28125 0l0 -4.890625l2.359375 0l0 4.890625l5.09375 0l0 2.078125z" fill-rule="nonzero"></path><path fill="#000000" fill-opacity="0.0" d="m304.8386 116.59449l226.51968 0l0 68.0315l-226.51968 0z" fill-rule="nonzero"></path><path fill="#959493" d="m314.26047 142.39273l0 -2.203125l16.0 0l0 2.203125l-6.765625 0l0 19.9375l-2.421875 0l0 -19.9375l-6.8125 0zm21.113281 19.9375l-2.40625 0l0 -22.96875l2.40625 0l0 7.859375q2.5625 -1.203125 4.921875 -1.203125q3.203125 0 4.3125 1.734375q1.109375 1.71875 1.109375 6.125l0 8.453125l-2.40625 0l0 -8.390625q0 -3.328125 -0.65625 -4.546875q-0.65625 -1.234375 -2.765625 -1.234375q-2.015625 0 -3.90625 0.734375l-0.609375 0.21875l0 13.21875zm25.668396 -1.984375l0.921875 -0.09375l0.0625 1.890625q-3.640625 0.5 -6.234375 0.5q-3.453125 0 -4.90625 -2.0q-1.4375 -2.0 -1.4375 -6.21875q0 -8.40625 6.6875 -8.40625q3.234375 0 4.828125 1.8125q1.609375 1.796875 1.609375 5.671875l-0.125 1.8125l-10.5625 0q0 2.65625 0.953125 3.9375q0.96875 1.28125 3.34375 1.28125q2.390625 0 4.859375 -0.1875zm-0.875 -6.9375q0 -2.953125 -0.9375 -4.15625q-0.9375 -1.21875 -3.078125 -1.21875q-2.125 0 -3.203125 1.28125q-1.0625 1.265625 -1.09375 4.09375l8.3125 0z" fill-rule="nonzero"></path><path fill="#000000" fill-opacity="0.0" d="m304.8386 207.07611l226.51968 0l0 68.031494l-226.51968 0z" fill-rule="nonzero"></path><path fill="#959493" d="m325.32297 243.68686l0 -2.203125l6.109375 0l0 10.875q-4.03125 0.765625 -7.1875 0.765625q-4.84375 0 -6.71875 -2.78125q-1.859375 -2.78125 -1.859375 -8.578125q0 -5.8125 1.859375 -8.609375q1.875 -2.8125 6.65625 -2.8125q2.96875 0 6.171875 0.640625l1.078125 0.203125l-0.09375 2.046875q-3.96875 -0.671875 -6.875 -0.671875q-3.6875 0 -4.96875 2.125q-1.265625 2.125 -1.265625 7.078125q0 4.9375 1.265625 7.0625q1.28125 2.125 4.9375 2.125q2.234375 0 4.578125 -0.4375l0 -6.828125l-3.6875 0zm13.258911 2.46875q0 4.796875 5.171875 4.796875q2.6875 0 4.046875 -1.125q1.359375 -1.140625 1.359375 -3.671875l0 -15.484375l2.4375 0l0 15.421875q0 3.703125 -1.96875 5.375q-1.96875 1.65625 -5.8125 1.65625q-3.828125 0 -5.765625 -1.65625q-1.9375 -1.671875 -1.9375 -5.375l0 -15.421875l2.46875 0l0 15.484375zm18.295532 6.65625l0 -22.140625l2.46875 0l0 22.140625l-2.46875 0z" fill-rule="nonzero"></path><path fill="#ffffff" d="m493.61963 212.10173l0 0c0 -2.7766266 2.2509155 -5.027527 5.027527 -5.027527l335.3938 0c1.333374 0 2.6121216 0.52967834 3.5549927 1.4725189c0.94281006 0.94285583 1.4725342 2.2216187 1.4725342 3.555008l0 57.976425c0 2.7766418 -2.2509155 5.027527 -5.027527 5.027527l-335.3938 0c-2.7766113 0 -5.027527 -2.250885 -5.027527 -5.027527z" fill-rule="nonzero"></path><path stroke="#959493" stroke-width="1.0" stroke-linejoin="round" stroke-linecap="butt" d="m493.61963 212.10173l0 0c0 -2.7766266 2.2509155 -5.027527 5.027527 -5.027527l335.3938 0c1.333374 0 2.6121216 0.52967834 3.5549927 1.4725189c0.94281006 0.94285583 1.4725342 2.2216187 1.4725342 3.555008l0 57.976425c0 2.7766418 -2.2509155 5.027527 -5.027527 5.027527l-335.3938 0c-2.7766113 0 -5.027527 -2.250885 -5.027527 -5.027527z" fill-rule="nonzero"></path><path fill="#959493" d="m524.9203 243.52545l-7.5 1.625l5.09375 5.9375l-3.40625 2.296875l-3.875 -6.65625l-3.921875 6.65625l-3.359375 -2.296875l5.265625 -5.9375l-7.671875 -1.625l1.296875 -3.859375l7.21875 3.03125l-0.734375 -7.734375l4.09375 0l-0.734375 7.734375l7.0 -3.03125l1.234375 3.859375zm22.287964 0l-7.5 1.625l5.09375 5.9375l-3.40625 2.296875l-3.875 -6.65625l-3.921875 6.65625l-3.359375 -2.296875l5.265625 -5.9375l-7.671875 -1.625l1.296875 -3.859375l7.21875 3.03125l-0.734375 -7.734375l4.09375 0l-0.734375 7.734375l7.0 -3.03125l1.234375 3.859375zm22.288025 0l-7.5 1.625l5.09375 5.9375l-3.40625 2.296875l-3.875 -6.65625l-3.921875 6.65625l-3.359375 -2.296875l5.265625 -5.9375l-7.671875 -1.625l1.296875 -3.859375l7.21875 3.03125l-0.734375 -7.734375l4.09375 0l-0.734375 7.734375l7.0 -3.03125l1.234375 3.859375zm22.287964 0l-7.5 1.625l5.09375 5.9375l-3.40625 2.296875l-3.875 -6.65625l-3.921875 6.65625l-3.359375 -2.296875l5.265625 -5.9375l-7.671875 -1.625l1.296875 -3.859375l7.21875 3.03125l-0.734375 -7.734375l4.09375 0l-0.734375 7.734375l7.0 -3.03125l1.234375 3.859375zm22.288025 0l-7.5 1.625l5.09375 5.9375l-3.40625 2.296875l-3.875 -6.65625l-3.921875 6.65625l-3.359375 -2.296875l5.265625 -5.9375l-7.671875 -1.625l1.296875 -3.859375l7.21875 3.03125l-0.734375 -7.734375l4.09375 0l-0.734375 7.734375l7.0 -3.03125l1.234375 3.859375zm22.287964 0l-7.5 1.625l5.09375 5.9375l-3.40625 2.296875l-3.875 -6.65625l-3.921875 6.65625l-3.359375 -2.296875l5.265625 -5.9375l-7.671875 -1.625l1.296875 -3.859375l7.21875 3.03125l-0.734375 -7.734375l4.09375 0l-0.734375 7.734375l7.0 -3.03125l1.234375 3.859375z" fill-rule="nonzero"></path><path fill="#000000" fill-opacity="0.0" d="m379.9167 26.112862l372.15747 0l0 68.031494l-372.15747 0z" fill-rule="nonzero"></path><path fill="#959493" d="m498.70172 74.5286l0 -27.687496l5.75 0l10.609375 24.968746l0.828125 0l0 -24.968746l3.046875 0l0 27.687496l-5.640625 0l-10.765625 -24.953121l-0.75 0l0 24.953121l-3.078125 0zm40.118103 -2.484375l1.15625 -0.109375l0.078125 2.359375q-4.5625 0.640625 -7.796875 0.640625q-4.328125 0 -6.125 -2.5q-1.796875 -2.5 -1.796875 -7.78125q0 -10.531246 8.359375 -10.531246q4.046875 0 6.046875 2.265625q2.0 2.265625 2.0 7.09375l-0.171875 2.2812462l-13.1875 0q0 3.328125 1.1875 4.9375q1.203125 1.59375 4.1875 1.59375q2.984375 0 6.0625 -0.25zm-1.078125 -8.671871q0 -3.6875 -1.1875 -5.203125q-1.171875 -1.515625 -3.84375 -1.515625q-2.65625 0 -4.0 1.59375q-1.328125 1.59375 -1.375 5.125l10.40625 0zm5.668762 -8.84375l3.28125 0l4.890625 7.84375l4.875 -7.84375l3.28125 0l-6.359375 9.921871l6.3125 10.078125l-3.28125 0l-4.828125 -7.796875l-4.890625 7.796875l-3.28125 0l6.28125 -10.0l-6.28125 -9.999996zm30.439331 2.59375l-6.359375 0l0 9.562496q0 3.4375 0.5 4.53125q0.5 1.078125 2.390625 1.078125l3.546875 -0.25l0.203125 2.484375q-2.671875 0.4375 -4.078125 0.4375q-3.125 0 -4.328125 -1.515625q-1.1875 -1.515625 -1.1875 -5.796875l0 -10.531246l-2.84375 0l0 -2.59375l2.84375 0l0 -6.125l2.953125 0l0 6.125l6.359375 0l0 2.59375z" fill-rule="nonzero"></path><path fill="#959493" d="m588.93665 64.76298l0 -4.796871l7.921875 0l0 14.124996q-5.71875 0.921875 -9.28125 0.921875q-6.359375 0 -8.75 -3.390625q-2.375 -3.40625 -2.375 -10.812496q0 -7.40625 2.484375 -10.6875q2.484375 -3.28125 8.4375 -3.28125q3.71875 0 8.046875 0.84375l1.4375 0.28125l-0.15625 4.28125q-4.8125 -0.515625 -7.875 -0.515625q-3.046875 0 -4.296875 0.71875q-1.234375 0.71875 -1.8125 2.65625q-0.578125 1.9375 -0.578125 6.640625q0 4.703121 1.15625 6.593746q1.15625 1.875 4.796875 1.875l3.328125 -0.171875l0 -5.28125l-2.484375 0zm18.393127 0.6875q0 4.765625 4.84375 4.765625q4.84375 0 4.84375 -4.765625l0 -18.124996l5.515625 0l0 17.999996q0 5.0 -2.578125 7.34375q-2.578125 2.34375 -7.78125 2.34375q-5.203125 0 -7.78125 -2.34375q-2.578125 -2.34375 -2.578125 -7.34375l0 -17.999996l5.515625 0l0 18.124996zm20.878723 9.078125l0 -27.203121l5.53125 0l0 27.203121l-5.53125 0z" fill-rule="nonzero"></path><path fill="#000000" fill-opacity="0.0" d="m304.8386 298.19684l226.51968 0l0 68.031494l-226.51968 0z" fill-rule="nonzero"></path><path fill="#959493" d="m322.66672 323.6201q-4.796875 0 -4.796875 3.609375q0 2.015625 1.09375 2.765625q1.109375 0.75 4.484375 1.5q3.375 0.75 4.78125 1.953125q1.421875 1.203125 1.421875 3.953125q0 6.8125 -7.078125 6.8125q-2.328125 0 -5.859375 -0.53125l-1.140625 -0.171875l0.25 -2.046875q4.359375 0.578125 6.625 0.578125q4.734375 0 4.734375 -4.453125q0 -1.78125 -1.046875 -2.5625q-1.03125 -0.796875 -3.875 -1.328125q-3.75 -0.8125 -5.328125 -2.0625q-1.5625 -1.265625 -1.5625 -4.25q0 -5.953125 7.140625 -5.953125q2.34375 0 5.59375 0.484375l1.09375 0.15625l-0.21875 2.078125q-4.453125 -0.53125 -6.3125 -0.53125zm10.10965 12.28125q0 -4.390625 1.5625 -6.328125q1.578125 -1.953125 5.296875 -1.953125q3.734375 0 5.28125 1.953125q1.5625 1.9375 1.5625 6.328125q0 4.390625 -1.46875 6.375q-1.46875 1.96875 -5.375 1.96875q-3.90625 0 -5.390625 -1.96875q-1.46875 -1.984375 -1.46875 -6.375zm2.46875 -0.046875q0 3.5 0.84375 4.90625q0.859375 1.40625 3.5625 1.40625q2.703125 0 3.53125 -1.390625q0.828125 -1.390625 0.828125 -4.90625q0 -3.515625 -0.9375 -4.84375q-0.921875 -1.328125 -3.4375 -1.328125q-2.5 0 -3.453125 1.328125q-0.9375 1.328125 -0.9375 4.828125zm15.333557 8.078125l0 -22.96875l2.390625 0l0 22.96875l-2.390625 0zm17.173248 -16.0l2.40625 0l0 16.0l-2.40625 0l0 -1.125q-2.390625 1.4375 -4.734375 1.4375q-3.265625 0 -4.34375 -1.6875q-1.0625 -1.703125 -1.0625 -6.265625l0 -8.359375l2.40625 0l0 8.3125q0 3.5 0.609375 4.6875q0.609375 1.171875 2.75 1.171875q1.046875 0 2.140625 -0.296875q1.09375 -0.3125 1.671875 -0.59375l0.5625 -0.296875l0 -12.984375zm15.304535 2.078125l-5.09375 0l0 7.65625q0 2.75 0.390625 3.609375q0.40625 0.859375 1.921875 0.859375l2.84375 -0.1875l0.15625 1.984375q-2.140625 0.359375 -3.265625 0.359375q-2.484375 0 -3.453125 -1.21875q-0.953125 -1.21875 -0.953125 -4.640625l0 -8.421875l-2.28125 0l0 -2.078125l2.28125 0l0 -4.890625l2.359375 0l0 4.890625l5.09375 0l0 2.078125zm2.9351501 13.921875l0 -16.0l2.40625 0l0 16.0l-2.40625 0zm0 -19.609375l0 -2.796875l2.40625 0l0 2.796875l-2.40625 0zm6.304901 11.578125q0 -4.390625 1.5625 -6.328125q1.578125 -1.953125 5.296875 -1.953125q3.734375 0 5.28125 1.953125q1.5625 1.9375 1.5625 6.328125q0 4.390625 -1.46875 6.375q-1.46875 1.96875 -5.375 1.96875q-3.90625 0 -5.390625 -1.96875q-1.46875 -1.984375 -1.46875 -6.375zm2.46875 -0.046875q0 3.5 0.84375 4.90625q0.859375 1.40625 3.5625 1.40625q2.703125 0 3.53125 -1.390625q0.828125 -1.390625 0.828125 -4.90625q0 -3.515625 -0.9375 -4.84375q-0.921875 -1.328125 -3.4375 -1.328125q-2.5 0 -3.453125 1.328125q-0.9375 1.328125 -0.9375 4.828125zm17.536652 8.078125l-2.40625 0l0 -16.0l2.375 0l0 1.125q2.59375 -1.4375 4.953125 -1.4375q3.203125 0 4.3125 1.734375q1.109375 1.71875 1.109375 6.125l0 8.453125l-2.375 0l0 -8.390625q0 -3.328125 -0.65625 -4.546875q-0.65625 -1.234375 -2.796875 -1.234375q-1.03125 0 -2.171875 0.3125q-1.125 0.296875 -1.734375 0.578125l-0.609375 0.296875l0 12.984375z" fill-rule="nonzero"></path><path fill="#ffffff" d="m493.61963 303.22186l0 0c0 -2.7766418 2.2509155 -5.027527 5.027527 -5.027527l335.3938 0c1.333374 0 2.6121216 0.5296631 3.5549927 1.4725037c0.94281006 0.9428711 1.4725342 2.2216187 1.4725342 3.5550232l0 57.97644c0 2.7766113 -2.2509155 5.027527 -5.027527 5.027527l-335.3938 0c-2.7766113 0 -5.027527 -2.2509155 -5.027527 -5.027527z" fill-rule="nonzero"></path><path stroke="#959493" stroke-width="1.0" stroke-linejoin="round" stroke-linecap="butt" d="m493.61963 303.22186l0 0c0 -2.7766418 2.2509155 -5.027527 5.027527 -5.027527l335.3938 0c1.333374 0 2.6121216 0.5296631 3.5549927 1.4725037c0.94281006 0.9428711 1.4725342 2.2216187 1.4725342 3.5550232l0 57.97644c0 2.7766113 -2.2509155 5.027527 -5.027527 5.027527l-335.3938 0c-2.7766113 0 -5.027527 -2.2509155 -5.027527 -5.027527z" fill-rule="nonzero"></path><path fill="#959493" d="m506.8109 343.93008l0 -22.140625l13.25 0l0 2.171875l-10.78125 0l0 8.640625l9.109375 0l0 2.171875l-9.109375 0l0 9.15625l-2.46875 0zm15.707031 -8.03125q0 -4.390625 1.5625 -6.328125q1.578125 -1.953125 5.296875 -1.953125q3.734375 0 5.28125 1.953125q1.5625 1.9375 1.5625 6.328125q0 4.390625 -1.46875 6.375q-1.46875 1.96875 -5.375 1.96875q-3.90625 0 -5.390625 -1.96875q-1.46875 -1.984375 -1.46875 -6.375zm2.46875 -0.046875q0 3.5 0.84375 4.90625q0.859375 1.40625 3.5625 1.40625q2.703125 0 3.53125 -1.390625q0.828125 -1.390625 0.828125 -4.90625q0 -3.515625 -0.9375 -4.84375q-0.921875 -1.328125 -3.4375 -1.328125q-2.5 0 -3.453125 1.328125q-0.9375 1.328125 -0.9375 4.828125zm15.130432 8.078125l0 -16.0l2.375 0l0 2.171875q2.78125 -1.921875 5.859375 -2.53125l0 2.4375q-1.34375 0.265625 -2.8125 0.8125q-1.453125 0.53125 -2.21875 0.953125l-0.796875 0.40625l0 11.75l-2.40625 0z" fill-rule="nonzero"></path><path fill="#000000" fill-opacity="0.0" d="m304.8386 384.35648l226.51968 0l0 68.031494l-226.51968 0z" fill-rule="nonzero"></path><path fill="#959493" d="m318.86984 423.43597q0 4.796875 5.171875 4.796875q2.6875 0 4.046875 -1.125q1.359375 -1.140625 1.359375 -3.671875l0 -15.484375l2.4375 0l0 15.421875q0 3.703125 -1.96875 5.375q-1.96875 1.65625 -5.8125 1.65625q-3.828125 0 -5.765625 -1.65625q-1.9375 -1.671875 -1.9375 -5.375l0 -15.421875l2.46875 0l0 15.484375zm20.279907 6.65625l-2.40625 0l0 -16.0l2.375 0l0 1.125q2.59375 -1.4375 4.953125 -1.4375q3.203125 0 4.3125 1.734375q1.109375 1.71875 1.109375 6.125l0 8.453125l-2.375 0l0 -8.390625q0 -3.328125 -0.65625 -4.546875q-0.65625 -1.234375 -2.796875 -1.234375q-1.03125 0 -2.171875 0.3125q-1.125 0.296875 -1.734375 0.578125l-0.609375 0.296875l0 12.984375zm14.7778015 0l0 -16.0l2.40625 0l0 16.0l-2.40625 0zm0 -19.609375l0 -2.796875l2.40625 0l0 2.796875l-2.40625 0zm15.304871 5.6875l-5.09375 0l0 7.65625q0 2.75 0.390625 3.609375q0.40625 0.859375 1.921875 0.859375l2.84375 -0.1875l0.15625 1.984375q-2.140625 0.359375 -3.265625 0.359375q-2.484375 0 -3.453125 -1.21875q-0.953125 -1.21875 -0.953125 -4.640625l0 -8.421875l-2.28125 0l0 -2.078125l2.28125 0l0 -4.890625l2.359375 0l0 4.890625l5.09375 0l0 2.078125zm1.4351501 -2.078125l2.40625 0l4.0 13.921875l1.046875 0l4.03125 -13.921875l2.40625 0l-6.65625 23.109375l-2.40625 0l2.09375 -7.109375l-2.375 0l-4.546875 -16.0z" fill-rule="nonzero"></path><path fill="#ffffff" d="m493.62073 400.71088l0 0c0 -1.6916809 1.3713989 -3.0630798 3.0630798 -3.0630798l35.921112 0c0.8123779 0 1.5914917 0.3227234 2.1658936 0.89715576c0.5744629 0.5744324 0.89715576 1.3535461 0.89715576 2.165924l0 35.322662c0 1.6917114 -1.3713989 3.0630798 -3.0630493 3.0630798l-35.921112 0c-1.6916809 0 -3.0630798 -1.3713684 -3.0630798 -3.0630798z" fill-rule="nonzero"></path><path stroke="#959493" stroke-width="1.0" stroke-linejoin="round" stroke-linecap="butt" d="m493.62073 400.71088l0 0c0 -1.6916809 1.3713989 -3.0630798 3.0630798 -3.0630798l35.921112 0c0.8123779 0 1.5914917 0.3227234 2.1658936 0.89715576c0.5744629 0.5744324 0.89715576 1.3535461 0.89715576 2.165924l0 35.322662c0 1.6917114 -1.3713989 3.0630798 -3.0630493 3.0630798l-35.921112 0c-1.6916809 0 -3.0630798 -1.3713684 -3.0630798 -3.0630798z" fill-rule="nonzero"></path><path fill="#ffffff" d="m602.14044 498.98553l0 0c0 -2.7766418 2.2509155 -5.027527 5.027527 -5.027527l209.85046 0c1.333374 0 2.6121216 0.5296936 3.5549927 1.4725342c0.94281006 0.9428406 1.4725342 2.2216187 1.4725342 3.5549927l0 57.97644c0 2.7766113 -2.2509155 5.027527 -5.027527 5.027527l-209.85046 0c-2.7766113 0 -5.027527 -2.2509155 -5.027527 -5.027527z" fill-rule="nonzero"></path><path stroke="#959493" stroke-width="1.0" stroke-linejoin="round" stroke-linecap="butt" d="m602.14044 498.98553l0 0c0 -2.7766418 2.2509155 -5.027527 5.027527 -5.027527l209.85046 0c1.333374 0 2.6121216 0.5296936 3.5549927 1.4725342c0.94281006 0.9428406 1.4725342 2.2216187 1.4725342 3.5549927l0 57.97644c0 2.7766113 -2.2509155 5.027527 -5.027527 5.027527l-209.85046 0c-2.7766113 0 -5.027527 -2.2509155 -5.027527 -5.027527z" fill-rule="nonzero"></path><path fill="#959493" d="m696.7885 528.725q0 4.859375 1.265625 6.984375q1.28125 2.125 4.9375 2.125q3.671875 0 4.9375 -2.078125q1.265625 -2.078125 1.265625 -6.96875q0 -4.90625 -1.3125 -7.140625q-1.3125 -2.234375 -4.921875 -2.234375q-3.59375 0 -4.890625 2.21875q-1.28125 2.21875 -1.28125 7.09375zm14.96875 0.0625q0 5.921875 -1.890625 8.578125q-1.890625 2.640625 -6.875 2.640625q-4.96875 0 -6.859375 -2.71875q-1.875 -2.71875 -1.875 -8.546875q0 -5.84375 1.90625 -8.671875q1.921875 -2.84375 6.8125 -2.84375q4.90625 0 6.84375 2.828125q1.9375 2.8125 1.9375 8.734375zm6.979431 10.90625l-2.46875 0l0 -22.140625l2.46875 0l0 10.296875l3.640625 -0.125l5.671875 -10.171875l2.8125 0l-6.34375 11.125l6.6875 11.015625l-2.90625 0l-5.890625 -9.796875l-3.671875 0.140625l0 9.65625z" fill-rule="nonzero"></path><path fill="#d9d9d9" d="m818.92255 321.7795l-12.094482 20.881897l-12.094482 -20.881897z" fill-rule="nonzero"></path><path stroke="#959493" stroke-width="1.0" stroke-linejoin="round" stroke-linecap="butt" d="m818.92255 321.7795l-12.094482 20.881897l-12.094482 -20.881897z" fill-rule="nonzero"></path><path fill="#959493" d="m532.5904 400.905l-24.275604 34.939484l-11.619263 -19.50238l11.411743 7.821533z" fill-rule="nonzero"></path></g></svg>

