<?xml version="1.0" standalone="yes"?>

<svg version="1.1" viewBox="0.0 0.0 1554.3648293963254 462.0288713910761" fill="none" stroke="none" stroke-linecap="square" stroke-miterlimit="10" xmlns="http://www.w3.org/2000/svg" xmlns:xlink="http://www.w3.org/1999/xlink"><clipPath id="p.0"><path d="m0 0l1554.3649 0l0 462.02887l-1554.3649 0l0 -462.02887z" clip-rule="nonzero"></path></clipPath><g clip-path="url(#p.0)"><path fill="#000000" fill-opacity="0.0" d="m0 0l1554.3649 0l0 462.02887l-1554.3649 0z" fill-rule="nonzero"></path><path fill="#9faa00" d="m19.551592 274.23788l93.6063 54.11023l-93.6063 54.11023z" fill-rule="nonzero"></path><path fill="#9faa00" d="m113.15789 436.32053l-93.6063 -54.11023l93.6063 -54.11023z" fill-rule="nonzero"></path><path fill="#9faa00" d="m19.551592 60.163017l93.6063 54.110237l-93.6063 54.11023z" fill-rule="nonzero"></path><path fill="#9faa00" d="m113.15789 222.24567l-93.6063 -54.11023l93.6063 -54.110237z" fill-rule="nonzero"></path><path fill="#9faa00" d="m19.551592 167.74178l93.6063 54.110245l-93.6063 54.11023z" fill-rule="nonzero"></path><path fill="#9faa00" d="m113.15789 329.20892l-93.6063 -54.11023l93.6063 -54.110245z" fill-rule="nonzero"></path><path fill="#9faa00" d="m206.33415 168.69205l-93.6693 54.015747l-0.06298828 -108.125984z" fill-rule="nonzero"></path><path fill="#d3e13c" d="m299.5001 222.48143l-93.6693 54.01573l-0.06298828 -108.12598z" fill-rule="nonzero"></path><path fill="#9faa00" d="m112.32924 222.5164l93.6693 -54.015747l0.06298828 108.12599z" fill-rule="nonzero"></path><path fill="#d3e13c" d="m205.09062 276.0722l93.6693 -54.015747l0.06298828 108.12598z" fill-rule="nonzero"></path><path fill="#c8db00" d="m113.15789 114.73765l-93.6063 -54.110233l93.6063 -54.110237z" fill-rule="nonzero"></path><path fill="#d3e13c" d="m391.8317 171.02107l-93.60632 -54.110237l93.60632 -54.110233z" fill-rule="nonzero"></path><path fill="#d3e13c" d="m298.22537 8.938417l93.60632 54.110237l-93.60632 54.110237z" fill-rule="nonzero"></path><path fill="#d3e13c" d="m391.8317 385.09595l-93.60632 -54.11023l93.60632 -54.11026z" fill-rule="nonzero"></path><path fill="#d3e13c" d="m298.22537 223.01329l93.60632 54.110214l-93.60632 54.11026z" fill-rule="nonzero"></path><path fill="#d3e13c" d="m391.8317 277.51718l-93.60632 -54.110245l93.60632 -54.11023z" fill-rule="nonzero"></path><path fill="#d3e13c" d="m298.22537 116.050026l93.60632 54.110237l-93.60632 54.110245z" fill-rule="nonzero"></path><path fill="#8d9700" d="m298.22537 330.5213l93.60632 54.11023l-93.60632 54.11026z" fill-rule="nonzero"></path><path fill="#000000" fill-opacity="0.0" d="m383.52808 113.82885l1341.7008 0l0 326.17322l-1341.7008 0z" fill-rule="nonzero"></path><path fill="#d3e13c" d="m502.52808 362.28198l7.75 -0.8125l0.53125 15.75q-30.4375 4.28125 -52.0625 4.28125q-28.84375 0 -40.859375 -16.6875q-12.015625 -16.6875 -12.015625 -51.9375q0 -70.21875 55.8125 -70.21875q26.96875 0 40.3125 15.09375q13.34375 15.078125 13.34375 47.390625l-1.0625 15.21875l-88.109375 0q0 22.15625 8.0 32.84375q8.015625 10.671875 27.90625 10.671875q19.890625 0 40.453125 -1.59375zm-7.203125 -57.953125q0 -24.5625 -7.875 -34.703125q-7.875 -10.140625 -25.640625 -10.140625q-17.75 0 -26.703125 10.6875q-8.9375 10.671875 -9.203125 34.15625l69.421875 0zm145.33325 -18.6875l0 68.359375q0.8125 9.875 15.5 11.75l-0.8125 15.75q-21.09375 0 -31.765625 -10.6875q-24.03125 10.6875 -48.0625 10.6875q-18.421875 0 -28.03125 -10.40625q-9.609375 -10.421875 -9.609375 -29.90625q0 -19.5 9.875 -28.703125q9.875 -9.21875 30.96875 -11.359375l41.921875 -4.0l0 -11.484375q0 -13.609375 -5.875 -19.484375q-5.875 -5.875 -16.015625 -5.875q-21.359375 0 -44.328125 2.671875l-8.28125 0.796875l-0.796875 -15.21875q29.375 -5.875 52.0625 -5.875q22.703125 0 32.96875 10.421875q10.28125 10.40625 10.28125 32.5625zm-82.234375 54.46875q0 24.5625 20.296875 24.5625q18.15625 0 35.78125 -6.140625l6.140625 -2.125l0 -44.0625l-39.515625 3.734375q-12.015625 1.078125 -17.359375 6.953125q-5.34375 5.875 -5.34375 17.078125zm190.73535 -77.421875l-42.453125 0l0 63.8125q0 22.953125 3.328125 30.171875q3.34375 7.203125 15.890625 7.203125l23.765625 -1.59375l1.34375 16.546875q-17.890625 2.9375 -27.234375 2.9375q-20.828125 0 -28.84375 -10.140625q-8.0 -10.15625 -8.0 -38.71875l0 -70.21875l-18.96875 0l0 -17.359375l18.96875 0l0 -40.84375l19.75 0l0 40.84375l42.453125 0l0 17.359375z" fill-rule="nonzero"></path><path fill="#ffffff" d="m777.068 378.82886l0 -184.76562l37.125 0l52.328125 156.20312l52.328125 -156.20312l37.109375 0l0 184.76562l-20.546875 0l0 -162.875l-3.75 0l-53.65625 156.20312l-22.96875 0l-53.671875 -156.20312l-3.734375 0l0 162.875l-20.5625 0zm214.64746 -67.015625q0 -36.578125 13.078125 -52.859375q13.09375 -16.296875 44.203125 -16.296875q31.109375 0 44.046875 16.296875q12.953125 16.28125 12.953125 52.859375q0 36.578125 -12.28125 53.140625q-12.28125 16.546875 -44.859375 16.546875q-32.578125 0 -44.859375 -16.546875q-12.28125 -16.5625 -12.28125 -53.140625zm20.5625 -0.40625q0 29.234375 7.078125 40.984375q7.078125 11.75 29.640625 11.75q22.5625 0 29.5 -11.609375q6.9375 -11.609375 6.9375 -40.984375q0 -29.375 -7.75 -40.453125q-7.734375 -11.078125 -28.703125 -11.078125q-20.953125 0 -28.828125 11.078125q-7.875 11.078125 -7.875 40.3125zm195.26318 -48.71875l-42.453125 0l0 63.8125q0 22.953125 3.328125 30.171875q3.34375 7.203125 15.890625 7.203125l23.765625 -1.59375l1.34375 16.546875q-17.890625 2.9375 -27.234375 2.9375q-20.828125 0 -28.84375 -10.140625q-8.0 -10.15625 -8.0 -38.71875l0 -70.21875l-18.96875 0l0 -17.359375l18.96875 0l0 -40.84375l19.75 0l0 40.84375l42.453125 0l0 17.359375zm24.440063 116.140625l0 -133.5l20.03125 0l0 133.5l-20.03125 0zm0 -163.67188l0 -23.234375l20.03125 0l0 23.234375l-20.03125 0zm52.522705 96.65625q0 -36.578125 13.078125 -52.859375q13.09375 -16.296875 44.203125 -16.296875q31.109375 0 44.046875 16.296875q12.953125 16.28125 12.953125 52.859375q0 36.578125 -12.28125 53.140625q-12.28125 16.546875 -44.859375 16.546875q-32.578125 0 -44.859375 -16.546875q-12.28125 -16.5625 -12.28125 -53.140625zm20.5625 -0.40625q0 29.234375 7.078125 40.984375q7.078125 11.75 29.640625 11.75q22.5625 0 29.5 -11.609375q6.9375 -11.609375 6.9375 -40.984375q0 -29.375 -7.75 -40.453125q-7.734375 -11.078125 -28.703125 -11.078125q-20.953125 0 -28.828125 11.078125q-7.875 11.078125 -7.875 40.3125zm146.13818 67.421875l-20.03125 0l0 -133.5l19.765625 0l0 9.34375q21.625 -12.015625 41.375 -12.015625q26.703125 0 35.90625 14.421875q9.21875 14.421875 9.21875 51.265625l0 70.484375l-19.75 0l0 -69.953125q0 -27.765625 -5.484375 -38.046875q-5.46875 -10.28125 -23.359375 -10.28125q-8.53125 0 -18.015625 2.546875q-9.484375 2.53125 -14.546875 4.921875l-5.078125 2.40625l0 108.40625z" fill-rule="nonzero"></path></g></svg>

