<?xml version="1.0" standalone="yes"?>

<svg version="1.1" viewBox="0.0 0.0 1054.251968503937 310.6771653543307" fill="none" stroke="none" stroke-linecap="square" stroke-miterlimit="10" xmlns="http://www.w3.org/2000/svg" xmlns:xlink="http://www.w3.org/1999/xlink"><clipPath id="p.0"><path d="m0 0l1054.252 0l0 310.67715l-1054.252 0l0 -310.67715z" clip-rule="nonzero"></path></clipPath><g clip-path="url(#p.0)"><path fill="#000000" fill-opacity="0.0" d="m0 0l1054.252 0l0 310.67715l-1054.252 0z" fill-rule="nonzero"></path><path fill="#d92727" d="m106.87087 14.95821l31.055122 93.60629l31.055115 -93.60629z" fill-rule="nonzero"></path><path fill="#c8db00" d="m168.83621 14.958729l-31.02362 93.6693l62.07875 0.06298828z" fill-rule="nonzero"></path><path fill="#dde56c" d="m199.86205 108.564095l-31.02362 93.66929l62.07875 0.06300354z" fill-rule="nonzero"></path><path fill="#d3e13c" d="m137.89671 108.563576l31.055115 93.6063l31.055115 -93.6063z" fill-rule="nonzero"></path><path fill="#d3e13c" d="m168.98752 202.16637l31.055115 93.60631l31.055115 -93.60631z" fill-rule="nonzero"></path><path fill="#b9d300" d="m169.39095 14.236026l-31.05513 93.6063l-31.055115 -93.6063z" fill-rule="nonzero"></path><path fill="#9faa00" d="m107.4256 14.236545l31.02362 93.6693l-62.078743 0.06298828z" fill-rule="nonzero"></path><path fill="#c8db00" d="m76.399765 107.84191l31.02362 93.66929l-62.07874 0.06300354z" fill-rule="nonzero"></path><path fill="#b9d300" d="m138.36511 107.84139l-31.055122 93.6063l-31.055122 -93.6063z" fill-rule="nonzero"></path><path fill="#d3e13c" d="m107.2743 201.44418l-31.055122 93.60629l-31.055115 -93.60629z" fill-rule="nonzero"></path><path fill="#c8db00" d="m355.09338 14.9594965l-31.055145 93.6063l-31.055115 -93.6063z" fill-rule="nonzero"></path><path fill="#d3e13c" d="m293.12802 14.960015l31.02362 93.6693l-62.078735 0.06298828z" fill-rule="nonzero"></path><path fill="#b9d300" d="m262.1022 108.565384l31.02362 93.6693l-62.07875 0.06298828z" fill-rule="nonzero"></path><path fill="#c8db00" d="m324.06754 108.564865l-31.055115 93.60629l-31.055115 -93.60629z" fill-rule="nonzero"></path><path fill="#9faa00" d="m292.9767 202.16765l-31.055115 93.60631l-31.055115 -93.60631z" fill-rule="nonzero"></path><path fill="#ffe433" d="m230.95287 202.16689l-31.02362 93.6693l62.07872 0.06298828z" fill-rule="nonzero"></path><path fill="#c8db00" d="m231.01138 202.16817l31.02362 93.6693l-62.078735 0.06298828z" fill-rule="nonzero"></path><path fill="#c8db00" d="m45.308956 201.4447l31.023624 93.66928l-62.078743 0.06298828z" fill-rule="nonzero"></path><path fill="#000000" fill-opacity="0.0" d="m268.33746 102.39895l1141.3542 0l0 199.33856l-1141.3542 0z" fill-rule="nonzero"></path><path fill="#d3e13c" d="m308.38434 263.30206q0 8.03125 4.859375 12.4375q4.859375 4.390625 11.96875 4.390625q13.28125 0 27.296875 -3.0l4.671875 -1.125l-1.109375 11.046875q-16.65625 5.421875 -31.984375 5.421875q-29.734375 0 -29.734375 -28.421875q0 -25.999985 11.78125 -46.39061q5.984375 -10.09375 15.984375 -16.265625q10.015625 -6.171875 22.53125 -6.171875q27.6875 0 27.6875 22.8125q0 16.65625 -12.53125 23.296875q-12.53125 6.625 -39.828125 6.625l-9.546875 0q-2.046875 7.296875 -2.046875 15.343735zm14.203125 -26.374985q19.078125 0 27.484375 -4.015625q8.421875 -4.015625 8.421875 -14.6875q0 -11.21875 -14.390625 -11.21875q-23.0 0 -31.796875 29.921875l10.28125 0z" fill-rule="nonzero"></path><path fill="#b9d300" d="m404.1508 292.47394q-23.9375 0 -23.9375 -27.875q0 -15.51561 4.953125 -30.937485q4.953125 -15.4375 16.171875 -26.9375q11.234375 -11.5 26.0 -11.5q11.40625 0 31.234375 3.375l7.109375 1.3125l-14.21875 60.76561q-2.625 10.46875 -4.484375 24.6875l-0.75 4.859375l-13.65625 0.5625q2.625 -16.078125 3.375 -20.015625q-0.9375 1.6875 -5.53125 6.453125q-4.578125 4.765625 -8.125 7.671875q-3.546875 2.890625 -8.609375 5.234375q-5.046875 2.34375 -9.53125 2.34375zm45.25 -82.468735q-13.078125 -2.625 -22.53125 -2.625q-9.4375 0 -17.296875 9.640625q-7.859375 9.625 -11.40625 22.4375q-3.546875 12.8125 -3.546875 22.906235q0 10.09375 3.171875 14.03125q3.1875 3.921875 9.53125 3.921875q6.359375 0 13.9375 -6.078125q7.578125 -6.078125 12.625 -12.25l4.859375 -6.1718597l10.65625 -45.8125z" fill-rule="nonzero"></path><path fill="#c8db00" d="m492.61954 271.7083q0 8.609375 9.34375 8.609375l14.4062195 -1.125l-0.9375 10.65625q-9.7187195 2.625 -18.515594 2.625q-8.78125 0 -13.84375 -4.671875q-5.046875 -4.6875 -5.046875 -12.53125q0 -7.859375 3.0 -19.82811l10.84375 -46.1875l-12.34375 0l3.1875 -12.15625l12.15625 0l6.53125 -27.671875l14.0312195 0l-6.7343445 27.671875l26.18747 0l-3.0 12.15625l-26.171844 0l-10.84375 46.937485q-2.25 8.96875 -2.25 15.515625z" fill-rule="nonzero"></path><path fill="#ffffff" d="m530.8512 290.59894l29.90625 -129.40623l24.125 0l8.234375 109.57811l59.84375 -109.57811l24.484375 0l-29.90625 129.40623l-14.21875 0l27.109375 -116.687485l-2.046875 0l-60.96875 112.01561l-14.953125 0l-8.609375 -112.01561l-1.875 0l-26.921875 116.687485l-14.203125 0zm195.13873 -95.374985q32.34375 0 32.34375 31.796875q0 17.390625 -5.515625 32.17186q-5.515625 14.765625 -16.546875 24.03125q-11.03125 9.25 -25.421875 9.25q-31.984375 0 -31.984375 -30.671875q0 -26.92186 13.375 -46.749985q13.375 -19.828125 33.75 -19.828125zm-15.140625 85.093735q14.953125 0 24.203125 -15.796875q9.265625 -15.812485 9.265625 -37.687485q0 -8.984375 -4.59375 -14.21875q-4.578125 -5.234375 -13.734375 -5.234375q-14.578125 0 -23.84375 16.375q-9.25 16.359375 -9.25 38.23436q0 18.328125 17.953125 18.328125zm78.92694 -8.609375q0 8.609375 9.34375 8.609375l14.40625 -1.125l-0.9375 10.65625q-9.71875 2.625 -18.515625 2.625q-8.78125 0 -13.84375 -4.671875q-5.046875 -4.6875 -5.046875 -12.53125q0 -7.859375 3.0 -19.82811l10.84375 -46.1875l-12.34375 0l3.1875 -12.15625l12.15625 0l6.53125 -27.671875l14.03125 0l-6.734375 27.671875l26.1875 0l-3.0 12.15625l-26.171875 0l-10.84375 46.937485q-2.25 8.96875 -2.25 15.515625zm35.98169 18.890625l21.5 -93.499985l14.03125 0l-21.6875 93.499985l-13.84375 0zm25.796875 -112.95311l4.125 -16.828125l14.015625 0l-3.921875 16.828125l-14.21875 0zm64.45117 17.578125q32.34375 0 32.34375 31.796875q0 17.390625 -5.515625 32.17186q-5.515625 14.765625 -16.546875 24.03125q-11.03125 9.25 -25.421875 9.25q-31.984375 0 -31.984375 -30.671875q0 -26.92186 13.375 -46.749985q13.375 -19.828125 33.75 -19.828125zm-15.140625 85.093735q14.953125 0 24.203125 -15.796875q9.265625 -15.812485 9.265625 -37.687485q0 -8.984375 -4.59375 -14.21875q-4.578125 -5.234375 -13.734375 -5.234375q-14.578125 0 -23.84375 16.375q-9.25 16.359375 -9.25 38.23436q0 18.328125 17.953125 18.328125zm117.442566 -85.093735q10.843811 0 16.453186 6.359375q5.625 6.359375 5.625 16.46875q0 10.09375 -3.75 25.046875l-11.03125 47.499985l-13.843811 0l10.859375 -46.562485q3.546936 -14.21875 3.546936 -22.4375q0 -14.03125 -12.718811 -14.03125q-5.609375 0 -12.8125 5.234375q-7.1875 5.234375 -11.6875 10.484375l-4.296875 5.234375l-14.390625 62.07811l-13.84375 0l21.5 -93.499985l13.65625 0l-3.375 16.265625q1.6875 -2.046875 4.390625 -5.03125q2.71875 -3.0 10.671875 -8.046875q7.953125 -5.0625 15.046875 -5.0625z" fill-rule="nonzero"></path></g></svg>

