<?xml version="1.0" standalone="yes"?>

<svg version="1.1" viewBox="0.0 0.0 1002.5826771653543 336.11548556430444" fill="none" stroke="none" stroke-linecap="square" stroke-miterlimit="10" xmlns="http://www.w3.org/2000/svg" xmlns:xlink="http://www.w3.org/1999/xlink"><clipPath id="p.0"><path d="m0 0l1002.5827 0l0 336.11548l-1002.5827 0l0 -336.11548z" clip-rule="nonzero"></path></clipPath><g clip-path="url(#p.0)"><path fill="#000000" fill-opacity="0.0" d="m0 0l1002.5827 0l0 336.11548l-1002.5827 0z" fill-rule="nonzero"></path><path fill="#b1bd31" d="m8.067985 58.381687l93.6063 54.110233l-93.6063 54.110237z" fill-rule="nonzero"></path><path fill="#b1bd31" d="m101.674286 220.46434l-93.6063 -54.11023l93.6063 -54.110237z" fill-rule="nonzero"></path><path fill="#d3e13c" d="m101.674286 112.95633l-93.6063 -54.110237l93.6063 -54.110233z" fill-rule="nonzero"></path><path fill="#b1bd31" d="m8.067985 165.96045l93.6063 54.110245l-93.6063 54.110245z" fill-rule="nonzero"></path><path fill="#d3e13c" d="m194.5237 166.20299l-93.6063 -54.110237l93.6063 -54.110237z" fill-rule="nonzero"></path><path fill="#d3e13c" d="m100.917404 4.735851l93.60629 54.110237l-93.60629 54.110233z" fill-rule="nonzero"></path><path fill="#9faa00" d="m319.0576 273.59164l-93.60629 -54.110245l93.60629 -54.11023z" fill-rule="nonzero"></path><path fill="#9faa00" d="m225.4513 111.508965l93.60629 54.110237l-93.60629 54.11023z" fill-rule="nonzero"></path><path fill="#9faa00" d="m225.4513 219.01698l93.60629 54.110245l-93.60629 54.11023z" fill-rule="nonzero"></path><path fill="#9faa00" d="m319.0576 166.01286l-93.60629 -54.110245l93.60629 -54.110233z" fill-rule="nonzero"></path><path fill="#c3d037" d="m132.60188 165.77032l93.60629 54.11023l-93.60629 54.11023z" fill-rule="nonzero"></path><path fill="#c3d037" d="m226.20818 327.23746l-93.60629 -54.11023l93.60629 -54.11023z" fill-rule="nonzero"></path><path fill="#000000" fill-opacity="0.0" d="m218.75586 42.15697l1341.7008 0l0 326.17322l-1341.7008 0z" fill-rule="nonzero"></path><path fill="#ffffff" d="m236.41211 171.19759q0 -15.234375 2.0625 -24.484375q2.078125 -9.25 7.53125 -14.0q5.453125 -4.765625 12.109375 -6.234375q6.65625 -1.484375 17.296875 -1.484375q10.640625 0 16.0 0.875q5.375 0.859375 10.5625 3.984375q5.1875 3.109375 7.4375 9.859375q2.25 6.734375 2.25 17.8125q0 21.109375 -23.703125 21.109375l-38.75 0q0 16.078125 3.625 21.53125q3.640625 5.453125 13.84375 5.453125q31.484375 0 43.25 -1.734375l0 9.6875q-17.125 4.84375 -43.25 4.84375q-17.46875 0 -23.875 -10.03125q-6.390625 -10.03125 -6.390625 -37.1875zm12.796875 -5.1875l38.75 0q10.90625 0 10.90625 -8.484375q0 -13.328125 -3.90625 -16.515625q-3.890625 -3.203125 -18.25 -3.203125q-17.8125 0 -21.265625 3.625q-4.84375 5.1875 -5.546875 11.421875q-0.6875 6.234375 -0.6875 13.15625z" fill-rule="nonzero"></path><path fill="#d3e13c" d="m328.61252 129.15071q18.6875 -5.1875 45.328125 -5.1875q11.25 0 18.59375 6.578125q7.359375 6.578125 7.359375 20.0625l0 66.953125l-9.515625 0l-3.296875 -11.078125l-2.59375 1.21875q-22.484375 10.890625 -35.8125 10.890625q-9.859375 0 -16.4375 -6.046875q-6.5625 -6.0625 -6.5625 -16.78125l0 -10.546875q0 -10.5625 6.140625 -16.78125q6.140625 -6.234375 16.859375 -6.234375q19.203125 0 28.796875 0q9.609375 0 9.609375 0q0.1875 -5.703125 0.1875 -8.5625q0 -2.859375 -0.1875 -3.03125q0 -14.1875 -14.875 -14.1875q-14.875 0 -43.59375 2.078125l0 -9.34375zm9.859375 65.75q0 10.890625 10.203125 10.890625q6.234375 0 15.828125 -2.25q9.609375 -2.25 16.1875 -4.328125l6.390625 -2.25l0 -24.734375l-38.40625 2.765625q-5.1875 0.53125 -7.703125 3.640625q-2.5 3.109375 -2.5 7.609375l0 8.65625zm73.69168 -56.578125l0 -9.6875l17.140625 -3.109375l3.109375 -25.609375l9.6875 0l0 25.609375l26.8125 0l0 12.796875l-26.8125 0l0 46.359375q0 10.5625 2.421875 14.625q2.421875 4.0625 7.4375 5.28125q14.1875 3.625 15.390625 3.625l0 9.171875l-15.21875 0q-22.828125 0 -22.828125 -32.703125l0 -46.359375l-17.140625 0z" fill-rule="nonzero"></path><path fill="#ffffff" d="m483.74414 217.55696l8.296875 -126.640625l17.65625 0l33.734375 105.359375l32.6875 -105.359375l17.484375 0l9.6875 126.640625l-12.8125 0l-7.78125 -103.453125l-32.515625 103.453125l-13.15625 0l-33.5625 -103.453125l-6.921875 103.453125l-12.796875 0zm178.61713 0.859375q-23.0 0 -31.828125 -10.203125q-8.8125 -10.203125 -8.8125 -36.671875q0 -26.46875 8.8125 -36.59375q8.828125 -10.125 31.828125 -10.125q23.015625 0 31.65625 10.296875q8.65625 10.296875 8.65625 36.9375q0 26.640625 -8.65625 36.5q-8.640625 9.859375 -31.65625 9.859375zm-23.78125 -72.125q-1.8125 3.796875 -2.9375 10.28125q-1.125 6.484375 -1.125 17.046875q0 10.546875 1.640625 17.296875q1.640625 6.75 5.703125 9.859375q4.078125 3.109375 8.3125 3.984375q4.234375 0.859375 12.109375 0.859375q7.875 0 12.28125 -0.859375q4.40625 -0.875 8.296875 -4.0625q3.90625 -3.203125 5.453125 -9.859375q1.5625 -6.671875 1.5625 -18.4375q0 -11.765625 -1.296875 -18.859375q-1.296875 -7.09375 -5.109375 -10.640625q-3.796875 -3.546875 -8.21875 -4.40625q-4.40625 -0.859375 -12.015625 -0.859375q-7.609375 0 -11.421875 0.515625q-3.796875 0.515625 -7.609375 2.421875q-3.8125 1.90625 -5.625 5.71875zm76.38788 -7.96875l0 -9.6875l17.140625 -3.109375l3.109375 -25.609375l9.6875 0l0 25.609375l26.8125 0l0 12.796875l-26.8125 0l0 46.359375q0 10.5625 2.421875 14.625q2.421875 4.0625 7.4375 5.28125q14.1875 3.625 15.390625 3.625l0 9.171875l-15.21875 0q-22.828125 0 -22.828125 -32.703125l0 -46.359375l-17.140625 0zm70.72119 -27.5l0 -9.34375q0 -4.328125 4.140625 -4.328125l8.65625 0q3.984375 0 3.984375 4.328125l0 9.34375q0 3.96875 -3.984375 3.96875l-8.65625 0q-4.140625 0 -4.140625 -3.96875zm1.71875 106.734375l0 -91.859375l12.8125 0l0 91.859375l-12.8125 0zm73.067505 0.859375q-23.0 0 -31.828125 -10.203125q-8.8125 -10.203125 -8.8125 -36.671875q0 -26.46875 8.8125 -36.59375q8.828125 -10.125 31.828125 -10.125q23.015625 0 31.65625 10.296875q8.65625 10.296875 8.65625 36.9375q0 26.640625 -8.65625 36.5q-8.640625 9.859375 -31.65625 9.859375zm-23.78125 -72.125q-1.8125 3.796875 -2.9375 10.28125q-1.125 6.484375 -1.125 17.046875q0 10.546875 1.640625 17.296875q1.640625 6.75 5.703125 9.859375q4.078125 3.109375 8.3125 3.984375q4.234375 0.859375 12.109375 0.859375q7.875 0 12.28125 -0.859375q4.40625 -0.875 8.296875 -4.0625q3.90625 -3.203125 5.453125 -9.859375q1.5625 -6.671875 1.5625 -18.4375q0 -11.765625 -1.296875 -18.859375q-1.296875 -7.09375 -5.109375 -10.640625q-3.796875 -3.546875 -8.21875 -4.40625q-4.40625 -0.859375 -12.015625 -0.859375q-7.609375 0 -11.421875 0.515625q-3.796875 0.515625 -7.609375 2.421875q-3.8125 1.90625 -5.625 5.71875zm83.30975 71.265625l0 -91.859375l9.0 0l3.8125 10.71875q0.515625 -0.171875 3.796875 -2.15625q3.296875 -1.984375 4.0625 -2.328125q0.78125 -0.359375 3.71875 -2.0q2.953125 -1.640625 4.15625 -1.984375q1.21875 -0.34375 3.984375 -1.375q2.765625 -1.046875 4.5 -1.390625q5.53125 -1.046875 9.6875 -1.046875q13.140625 0 20.75 8.65625q7.625 8.640625 7.625 20.75l0 64.015625l-12.8125 0l0 -64.015625q0 -8.125 -4.328125 -12.359375q-4.3125 -4.25 -11.0625 -4.25q-6.75 0 -12.640625 1.390625q-5.875 1.390625 -9.421875 2.859375q-3.546875 1.46875 -12.015625 5.625l0 70.75l-12.8125 0z" fill-rule="nonzero"></path></g></svg>

