<?xml version="1.0" standalone="yes"?>

<svg version="1.1" viewBox="0.0 0.0 1002.5826771653543 336.11548556430444" fill="none" stroke="none" stroke-linecap="square" stroke-miterlimit="10" xmlns="http://www.w3.org/2000/svg" xmlns:xlink="http://www.w3.org/1999/xlink"><clipPath id="p.0"><path d="m0 0l1002.5827 0l0 336.11548l-1002.5827 0l0 -336.11548z" clip-rule="nonzero"></path></clipPath><g clip-path="url(#p.0)"><path fill="#000000" fill-opacity="0.0" d="m0 0l1002.5827 0l0 336.11548l-1002.5827 0z" fill-rule="nonzero"></path><path fill="#b1bd31" d="m8.067985 57.904037l93.6063 54.110237l-93.6063 54.110237z" fill-rule="nonzero"></path><path fill="#b1bd31" d="m101.674286 219.50905l-93.6063 -54.11023l93.6063 -54.110237z" fill-rule="nonzero"></path><path fill="#d3e13c" d="m101.674286 112.95634l-93.6063 -54.11024l93.6063 -54.110237z" fill-rule="nonzero"></path><path fill="#b1bd31" d="m8.067985 164.52751l93.6063 54.11023l-93.6063 54.110245z" fill-rule="nonzero"></path><path fill="#d3e13c" d="m193.5684 166.20299l-93.60631 -54.110237l93.60631 -54.110237z" fill-rule="nonzero"></path><path fill="#d3e13c" d="m100.43976 4.735851l93.60629 54.110237l-93.60629 54.110233z" fill-rule="nonzero"></path><path fill="#9faa00" d="m319.0576 274.06927l-93.60629 -54.11023l93.60629 -54.11023z" fill-rule="nonzero"></path><path fill="#9faa00" d="m225.4513 112.46426l93.60629 54.110237l-93.60629 54.11023z" fill-rule="nonzero"></path><path fill="#9faa00" d="m225.45128 219.01698l93.60631 54.110245l-93.60631 54.11023z" fill-rule="nonzero"></path><path fill="#9faa00" d="m319.0576 167.4458l-93.60629 -54.110237l93.60629 -54.110237z" fill-rule="nonzero"></path><path fill="#c3d037" d="m133.55717 165.77032l93.60629 54.11023l-93.60629 54.11023z" fill-rule="nonzero"></path><path fill="#c3d037" d="m226.68582 327.23746l-93.60629 -54.11023l93.60629 -54.11023z" fill-rule="nonzero"></path><path fill="#000000" fill-opacity="0.0" d="m223.53233 44.06756l1341.7008 0l0 326.17322l-1341.7008 0z" fill-rule="nonzero"></path><path fill="#ffffff" d="m240.93858 169.31631q0 -14.78125 2.015625 -23.765625q2.015625 -8.984375 7.296875 -13.609375q5.296875 -4.6250076 11.76564 -6.0468826q6.46875 -1.421875 16.796875 -1.421875q10.328125 0 15.53125 0.84375q5.21875 0.828125 10.25 3.8593826q5.046875 3.015625 7.234375 9.578125q2.1875 6.546875 2.1875 17.296875q0 20.5 -23.015625 20.5l-37.64064 0q0 15.625 3.5312653 20.921875q3.53125 5.28125 13.4375 5.28125q30.578125 0 42.0 -1.671875l0 9.40625q-16.625 4.703125 -42.0 4.703125q-16.968765 0 -23.187515 -9.734375q-6.203125 -9.75 -6.203125 -36.140625zm12.421875 -5.03125l37.64064 0q10.578125 0 10.578125 -8.234375q0 -12.9375 -3.78125 -16.046875q-3.78125 -3.109375 -17.71875 -3.109375q-17.3125 0 -20.671875 3.53125q-4.7031403 5.046875 -5.3750153 11.09375q-0.671875 6.046875 -0.671875 12.765625z" fill-rule="nonzero"></path><path fill="#e7f740" d="m330.31046 128.50381q18.140625 -5.0468826 44.015625 -5.0468826q10.921875 0 18.0625 6.3906326q7.140625 6.375 7.140625 19.484375l0 65.015625l-9.25 0l-3.1875 -10.75l-2.515625 1.171875q-21.84375 10.59375 -34.78125 10.59375q-9.578125 0 -15.96875 -5.875q-6.375 -5.890625 -6.375 -16.3125l0 -10.25q0 -10.234375 5.953125 -16.28125q5.96875 -6.0625 16.390625 -6.0625q18.65625 0 27.96875 0q9.328125 0 9.328125 0q0.171875 -5.53125 0.171875 -8.296875q0 -2.78125 -0.171875 -2.953125q0 -13.78125 -14.453125 -13.78125q-14.4375 0 -42.328125 2.015625l0 -9.0625zm9.578125 63.828125q0 10.59375 9.90625 10.59375q6.046875 0 15.375 -2.1875q9.328125 -2.1875 15.703125 -4.203125l6.21875 -2.171875l0 -24.03125l-37.296875 2.6875q-5.03125 0.5 -7.46875 3.53125q-2.4375 3.015625 -2.4375 7.390625l0 8.390625zm71.39511 -54.921875l0 -9.421883l16.625 -3.015625l3.03125 -24.859375l9.40625 0l0 24.859375l26.046875 0l0 12.437508l-26.046875 0l0 45.015625q0 10.25 2.34375 14.203125q2.359375 3.9375 7.234375 5.125q13.78125 3.515625 14.953125 3.515625l0 8.90625l-14.78125 0q-22.1875 0 -22.1875 -31.75l0 -45.015625l-16.625 0z" fill-rule="nonzero"></path><path fill="#ffffff" d="m480.66272 214.34756l8.0625 -122.96876l17.140625 0l32.765625 102.31251l31.75 -102.31251l16.96875 0l9.40625 122.96876l-12.4375 0l-7.546875 -100.46876l-31.59375 100.46876l-12.765625 0l-32.59375 -100.46876l-6.71875 100.46876l-12.4375 0zm173.20862 0.84375q-22.34375 0 -30.90625 -9.90625q-8.5625 -9.921875 -8.5625 -35.625q0 -25.703125 8.5625 -35.53125q8.5625 -9.828133 30.90625 -9.828133q22.34375 0 30.75 10.000008q8.40625 9.984375 8.40625 35.859375q0 25.875 -8.40625 35.453125q-8.40625 9.578125 -30.75 9.578125zm-23.09375 -70.046875q-1.765625 3.6875 -2.859375 9.984375q-1.09375 6.296875 -1.09375 16.546875q0 10.25 1.59375 16.8125q1.609375 6.546875 5.546875 9.578125q3.953125 3.015625 8.0625 3.859375q4.125 0.828125 11.765625 0.828125q7.640625 0 11.921875 -0.828125q4.296875 -0.84375 8.0625 -3.953125q3.78125 -3.109375 5.296875 -9.578125q1.515625 -6.46875 1.515625 -17.890625q0 -11.421875 -1.265625 -18.3125q-1.25 -6.890625 -4.953125 -10.328125q-3.6875 -3.453125 -7.984375 -4.28125q-4.28125 -0.84375 -11.671875 -0.84375q-7.390625 0 -11.09375 0.5q-3.6875 0.5 -7.390625 2.359375q-3.6875 1.84375 -5.453125 5.546875zm74.002075 -7.734375l0 -9.421883l16.625 -3.015625l3.03125 -24.859375l9.40625 0l0 24.859375l26.046875 0l0 12.437508l-26.046875 0l0 45.015625q0 10.25 2.34375 14.203125q2.359375 3.9375 7.234375 5.125q13.78125 3.515625 14.953125 3.515625l0 8.90625l-14.78125 0q-22.1875 0 -22.1875 -31.75l0 -45.015625l-16.625 0zm68.5509 -26.718758l0 -9.078125q0 -4.1875 4.03125 -4.1875l8.390625 0q3.875 0 3.875 4.1875l0 9.078125q0 3.859375 -3.875 3.859375l-8.390625 0q-4.03125 0 -4.03125 -3.859375zm1.671875 103.65626l0 -89.20313l12.4375 0l0 89.20313l-12.4375 0zm70.89288 0.84375q-22.34375 0 -30.90625 -9.90625q-8.5625 -9.921875 -8.5625 -35.625q0 -25.703125 8.5625 -35.53125q8.5625 -9.828133 30.90625 -9.828133q22.34375 0 30.75 10.000008q8.40625 9.984375 8.40625 35.859375q0 25.875 -8.40625 35.453125q-8.40625 9.578125 -30.75 9.578125zm-23.09375 -70.046875q-1.765625 3.6875 -2.859375 9.984375q-1.09375 6.296875 -1.09375 16.546875q0 10.25 1.59375 16.8125q1.609375 6.546875 5.546875 9.578125q3.953125 3.015625 8.0625 3.859375q4.125 0.828125 11.765625 0.828125q7.640625 0 11.921875 -0.828125q4.296875 -0.84375 8.0625 -3.953125q3.78125 -3.109375 5.296875 -9.578125q1.515625 -6.46875 1.515625 -17.890625q0 -11.421875 -1.265625 -18.3125q-1.25 -6.890625 -4.953125 -10.328125q-3.6875 -3.453125 -7.984375 -4.28125q-4.28125 -0.84375 -11.671875 -0.84375q-7.390625 0 -11.09375 0.5q-3.6875 0.5 -7.390625 2.359375q-3.6875 1.84375 -5.453125 5.546875zm80.72089 69.203125l0 -89.20313l8.734375 0l3.703125 10.406258q0.5 -0.15625 3.6875 -2.09375q3.203125 -1.9375 3.953125 -2.265625q0.75 -0.34375 3.609375 -1.9375q2.859375 -1.5937576 4.03125 -1.9218826q1.171875 -0.34375 3.859375 -1.34375q2.703125 -1.015625 4.375 -1.359375q5.375 -1.0 9.40625 -1.0q12.765625 0 20.15625 8.406258q7.390625 8.390625 7.390625 20.15625l0 62.15625l-12.421875 0l0 -62.15625q0 -7.90625 -4.203125 -12.015625q-4.203125 -4.109375 -10.75 -4.109375q-6.546875 0 -12.265625 1.34375q-5.71875 1.34375 -9.15625 2.765625q-3.4375 1.421875 -11.671875 5.453125l0 68.71875l-12.4375 0z" fill-rule="nonzero"></path></g></svg>

