<?xml version="1.0" standalone="yes"?>

<svg version="1.1" viewBox="0.0 0.0 953.5196850393701 333.9133858267717" fill="none" stroke="none" stroke-linecap="square" stroke-miterlimit="10" xmlns="http://www.w3.org/2000/svg" xmlns:xlink="http://www.w3.org/1999/xlink"><clipPath id="p.0"><path d="m0 0l953.5197 0l0 333.9134l-953.5197 0l0 -333.9134z" clip-rule="nonzero"></path></clipPath><g clip-path="url(#p.0)"><path fill="#000000" fill-opacity="0.0" d="m0 0l953.5197 0l0 333.9134l-953.5197 0z" fill-rule="nonzero"></path><path fill="#9faa00" d="m8.976531 57.927414l93.6063 54.110237l-93.6063 54.110237z" fill-rule="nonzero"></path><path fill="#9faa00" d="m102.58283 220.01007l-93.6063 -54.11023l93.6063 -54.110237z" fill-rule="nonzero"></path><path fill="#d3e13c" d="m102.58283 112.50206l-93.6063 -54.11024l93.6063 -54.110233z" fill-rule="nonzero"></path><path fill="#9faa00" d="m8.976531 165.50618l93.6063 54.11023l-93.6063 54.110245z" fill-rule="nonzero"></path><path fill="#d3e13c" d="m195.43224 165.74872l-93.60629 -54.110237l93.60629 -54.11024z" fill-rule="nonzero"></path><path fill="#d3e13c" d="m101.82595 4.2815776l93.6063 54.110237l-93.6063 54.110237z" fill-rule="nonzero"></path><path fill="#d9e83d" d="m319.0576 273.59164l-93.60629 -54.110245l93.60629 -54.11023z" fill-rule="nonzero"></path><path fill="#d9e83d" d="m225.4513 111.508965l93.60629 54.110237l-93.60629 54.11023z" fill-rule="nonzero"></path><path fill="#d9e83d" d="m225.4513 219.01698l93.60629 54.110245l-93.60629 54.11023z" fill-rule="nonzero"></path><path fill="#d9e83d" d="m319.0576 166.01286l-93.60629 -54.110245l93.60629 -54.110233z" fill-rule="nonzero"></path><path fill="#c3d037" d="m132.60188 165.77032l93.60629 54.11023l-93.60629 54.11023z" fill-rule="nonzero"></path><path fill="#c3d037" d="m226.20818 327.23746l-93.60629 -54.11023l93.60629 -54.11023z" fill-rule="nonzero"></path><path fill="#000000" fill-opacity="0.0" d="m225.46944 50.333477l1341.7007 0l0 326.17325l-1341.7007 0z" fill-rule="nonzero"></path><path fill="#ffffff" d="m242.46944 170.05847q0 -14.078125 1.921875 -22.640625q1.921875 -8.5625 6.953125 -12.953125q5.0468597 -4.40625 11.20311 -5.765625q6.15625 -1.359375 16.0 -1.359375q9.84375 0 14.796875 0.796875q4.96875 0.796875 9.765625 3.6875q4.796875 2.875 6.875 9.109375q2.078125 6.234375 2.078125 16.484375q0 19.515625 -21.90625 19.515625l-35.843735 0q0 14.875 3.3593597 19.921875q3.359375 5.03125 12.796875 5.03125q29.125 0 40.0 -1.59375l0 8.953125q-15.84375 4.484375 -40.0 4.484375q-16.156235 0 -22.07811 -9.28125q-5.921875 -9.28125 -5.921875 -34.390625zm11.84375 -4.8125l35.843735 0q10.078125 0 10.078125 -7.828125q0 -12.328125 -3.609375 -15.28125q-3.59375 -2.96875 -16.875 -2.96875q-16.484375 0 -19.6875 3.359375q-4.4687347 4.8125 -5.1093597 10.578125q-0.640625 5.75 -0.640625 12.140625z" fill-rule="nonzero"></path><path fill="#d3e13c" d="m327.59448 131.16785q17.28125 -4.796875 41.921875 -4.796875q10.390625 0 17.1875 6.078125q6.8125 6.078125 6.8125 18.5625l0 61.921875l-8.8125 0l-3.03125 -10.234375l-2.40625 1.109375q-20.796875 10.078125 -33.109375 10.078125q-9.125 0 -15.203125 -5.59375q-6.078125 -5.59375 -6.078125 -15.515625l0 -9.765625q0 -9.765625 5.671875 -15.515625q5.6875 -5.765625 15.609375 -5.765625q17.75 0 26.625 0q8.890625 0 8.890625 0q0.15625 -5.28125 0.15625 -7.921875q0 -2.640625 -0.15625 -2.796875q0 -13.125 -13.765625 -13.125q-13.75 0 -40.3125 1.921875l0 -8.640625zm9.109375 60.8125q0 10.078125 9.453125 10.078125q5.75 0 14.625 -2.078125q8.890625 -2.09375 14.96875 -4.0l5.921875 -2.09375l0 -22.875l-35.515625 2.5625q-4.8125 0.484375 -7.140625 3.359375q-2.3125 2.875 -2.3125 7.046875l0 8.0zm68.00879 -52.328125l0 -8.953125l15.84375 -2.890625l2.875 -23.671875l8.953125 0l0 23.671875l24.8125 0l0 11.84375l-24.8125 0l0 42.875q0 9.765625 2.234375 13.53125q2.25 3.75 6.890625 4.875q13.125 3.359375 14.234375 3.359375l0 8.484375l-14.078125 0q-21.109375 0 -21.109375 -30.25l0 -42.875l-15.84375 0z" fill-rule="nonzero"></path><path fill="#ffffff" d="m470.7864 212.93347l7.6875 -117.125l16.3125 0l31.203156 97.4375l30.234375 -97.4375l16.171875 0l8.953125 117.125l-11.84375 0l-7.203125 -95.6875l-30.078125 95.6875l-12.15625 0l-31.03128 -95.6875l-6.40625 95.6875l-11.84375 0zm164.95694 0.796875q-21.28125 0 -29.4375 -9.4375q-8.15625 -9.4375 -8.15625 -33.921875q0 -24.484375 8.15625 -33.84375q8.15625 -9.359375 29.4375 -9.359375q21.28125 0 29.28125 9.53125q8.0 9.515625 8.0 34.15625q0 24.640625 -8.0 33.765625q-8.0 9.109375 -29.28125 9.109375zm-22.0 -66.71875q-1.671875 3.515625 -2.71875 9.515625q-1.03125 6.0 -1.03125 15.765625q0 9.765625 1.515625 16.0q1.515625 6.234375 5.28125 9.125q3.765625 2.875 7.671875 3.671875q3.921875 0.796875 11.203125 0.796875q7.28125 0 11.359375 -0.796875q4.078125 -0.796875 7.671875 -3.75q3.609375 -2.96875 5.046875 -9.125q1.453125 -6.15625 1.453125 -17.03125q0 -10.890625 -1.203125 -17.453125q-1.203125 -6.5625 -4.734375 -9.828125q-3.515625 -3.28125 -7.59375 -4.078125q-4.078125 -0.8125 -11.125 -0.8125q-7.03125 0 -10.5625 0.484375q-3.515625 0.484375 -7.03125 2.25q-3.515625 1.75 -5.203125 5.265625zm70.48944 -7.359375l0 -8.953125l15.84375 -2.890625l2.875 -23.671875l8.953125 0l0 23.671875l24.8125 0l0 11.84375l-24.8125 0l0 42.875q0 9.765625 2.234375 13.53125q2.25 3.75 6.890625 4.875q13.125 3.359375 14.234375 3.359375l0 8.484375l-14.078125 0q-21.109375 0 -21.109375 -30.25l0 -42.875l-15.84375 0zm65.27692 -25.4375l0 -8.640625q0 -4.0 3.84375 -4.0l8.0 0q3.671875 0 3.671875 4.0l0 8.640625q0 3.671875 -3.671875 3.671875l-8.0 0q-3.84375 0 -3.84375 -3.671875zm1.59375 98.71875l0 -84.953125l11.84375 0l0 84.953125l-11.84375 0zm67.52002 0.796875q-21.28125 0 -29.4375 -9.4375q-8.15625 -9.4375 -8.15625 -33.921875q0 -24.484375 8.15625 -33.84375q8.15625 -9.359375 29.4375 -9.359375q21.28125 0 29.28125 9.53125q8.0 9.515625 8.0 34.15625q0 24.640625 -8.0 33.765625q-8.0 9.109375 -29.28125 9.109375zm-22.0 -66.71875q-1.671875 3.515625 -2.71875 9.515625q-1.03125 6.0 -1.03125 15.765625q0 9.765625 1.515625 16.0q1.515625 6.234375 5.28125 9.125q3.765625 2.875 7.671875 3.671875q3.921875 0.796875 11.203125 0.796875q7.28125 0 11.359375 -0.796875q4.078125 -0.796875 7.671875 -3.75q3.609375 -2.96875 5.046875 -9.125q1.453125 -6.15625 1.453125 -17.03125q0 -10.890625 -1.203125 -17.453125q-1.203125 -6.5625 -4.734375 -9.828125q-3.515625 -3.28125 -7.59375 -4.078125q-4.078125 -0.8125 -11.125 -0.8125q-7.03125 0 -10.5625 0.484375q-3.515625 0.484375 -7.03125 2.25q-3.515625 1.75 -5.203125 5.265625zm76.880005 65.921875l0 -84.953125l8.328125 0l3.515625 9.90625q0.484375 -0.15625 3.515625 -1.984375q3.046875 -1.84375 3.765625 -2.15625q0.71875 -0.328125 3.4375 -1.84375q2.71875 -1.53125 3.84375 -1.84375q1.125 -0.328125 3.671875 -1.28125q2.5625 -0.96875 4.171875 -1.28125q5.109375 -0.96875 8.953125 -0.96875q12.15625 0 19.203125 8.0q7.046875 8.0 7.046875 19.203125l0 59.203125l-11.84375 0l0 -59.203125q0 -7.515625 -4.0 -11.4375q-4.0 -3.921875 -10.25 -3.921875q-6.234375 0 -11.671875 1.28125q-5.4375 1.28125 -8.71875 2.640625q-3.28125 1.359375 -11.125 5.203125l0 65.4375l-11.84375 0z" fill-rule="nonzero"></path></g></svg>

