<?xml version="1.0" standalone="yes"?>

<svg version="1.1" viewBox="0.0 0.0 916.0551181102362 316.0314960629921" fill="none" stroke="none" stroke-linecap="square" stroke-miterlimit="10" xmlns="http://www.w3.org/2000/svg" xmlns:xlink="http://www.w3.org/1999/xlink"><clipPath id="p.0"><path d="m0 0l916.0551 0l0 316.0315l-916.0551 0l0 -316.0315z" clip-rule="nonzero"></path></clipPath><g clip-path="url(#p.0)"><path fill="#000000" fill-opacity="0.0" d="m0 0l916.0551 0l0 316.0315l-916.0551 0z" fill-rule="nonzero"></path><path fill="#9faa00" d="m5.337425 56.76293l93.6063 54.110237l-93.6063 54.11023z" fill-rule="nonzero"></path><path fill="#9faa00" d="m98.943726 218.8456l-93.6063 -54.11023l93.6063 -54.110237z" fill-rule="nonzero"></path><path fill="#d3e13c" d="m98.943726 111.33758l-93.6063 -54.110233l93.6063 -54.110237z" fill-rule="nonzero"></path><path fill="#9faa00" d="m5.337425 164.3417l93.6063 54.11023l-93.6063 54.11023z" fill-rule="nonzero"></path><path fill="#d3e13c" d="m191.79314 164.58424l-93.6063 -54.110237l93.6063 -54.11024z" fill-rule="nonzero"></path><path fill="#d3e13c" d="m98.18684 3.1170986l93.6063 54.110233l-93.6063 54.110237z" fill-rule="nonzero"></path><path fill="#d9e83d" d="m307.85492 259.19006l-93.60631 -54.110245l93.60631 -54.11023z" fill-rule="nonzero"></path><path fill="#d9e83d" d="m214.24861 97.10739l93.60631 54.11023l-93.60631 54.110245z" fill-rule="nonzero"></path><path fill="#d9e83d" d="m214.24861 204.6154l93.60631 54.110245l-93.60631 54.11023z" fill-rule="nonzero"></path><path fill="#d9e83d" d="m307.85492 151.61128l-93.60631 -54.110237l93.60631 -54.110233z" fill-rule="nonzero"></path><path fill="#c3d037" d="m121.3992 151.36874l93.60629 54.110245l-93.60629 54.110245z" fill-rule="nonzero"></path><path fill="#c3d037" d="m215.0055 312.83588l-93.60629 -54.11023l93.60629 -54.11023z" fill-rule="nonzero"></path><path fill="#000000" fill-opacity="0.0" d="m214.26677 37.241177l1341.7008 0l0 326.17322l-1341.7008 0z" fill-rule="nonzero"></path><path fill="#ffffff" d="m289.18863 189.9193l4.640625 -0.484375l0.3125 9.453125q-18.234375 2.546875 -31.1875 2.546875q-17.281235 0 -24.48436 -10.0q-7.203125 -10.0 -7.203125 -31.109375q0 -42.078133 33.437485 -42.078133q16.15625 0 24.15625 9.046875q8.0 9.031258 8.0 28.390633l-0.640625 9.109375l-52.79686 0q0 13.28125 4.796875 19.6875q4.8125 6.40625 16.718735 6.40625q11.921875 0 24.25 -0.96875zm-4.328125 -34.71875q0 -14.71875 -4.71875 -20.796875q-4.71875 -6.078125 -15.359375 -6.078125q-10.64061 0 -15.999985 6.40625q-5.359375 6.390625 -5.515625 20.46875l41.593735 0z" fill-rule="nonzero"></path><path fill="#d3e13c" d="m372.0668 143.99742l0 40.96875q0.484375 5.921875 9.28125 7.03125l-0.484375 9.4375q-12.640625 0 -19.03125 -6.390625q-14.40625 6.390625 -28.8125 6.390625q-11.03125 0 -16.796875 -6.234375q-5.75 -6.234375 -5.75 -17.90625q0 -11.6875 5.90625 -17.203125q5.921875 -5.53125 18.5625 -6.8125l25.125 -2.390625l0 -6.890625q0 -8.15625 -3.53125 -11.671875q-3.515625 -3.53125 -9.59375 -3.53125q-12.796875 0 -26.5625 1.609375l-4.953125 0.484375l-0.484375 -9.125008q17.609375 -3.515625 31.203125 -3.515625q13.609375 0 19.765625 6.234375q6.15625 6.2343826 6.15625 19.515633zm-49.28125 32.640625q0 14.71875 12.15625 14.71875q10.890625 0 21.4375 -3.671875l3.6875 -1.28125l0 -26.40625l-23.6875 2.25q-7.1875 0.640625 -10.390625 4.15625q-3.203125 3.515625 -3.203125 10.234375zm114.39444 -46.390625l-25.4375 0l0 38.234375q0 13.765625 2.0 18.09375q2.0 4.3125 9.53125 4.3125l14.234375 -0.96875l0.796875 9.921875q-10.71875 1.765625 -16.3125 1.765625q-12.484375 0 -17.28125 -6.078125q-4.796875 -6.09375 -4.796875 -23.203125l0 -42.078125l-11.375 0l0 -10.406258l11.375 0l0 -24.484375l11.828125 0l0 24.484375l25.4375 0l0 10.406258z" fill-rule="nonzero"></path><path fill="#ffffff" d="m453.98065 199.84117l0 -110.71876l22.24997 0l31.359375 93.59376l31.359406 -93.59376l22.234375 0l0 110.71876l-12.3125 0l0 -97.59376l-2.25 0l-32.15625 93.59376l-13.7656555 0l-32.15622 -93.59376l-2.234375 0l0 97.59376l-12.328125 0zm128.80634 -40.15625q0 -21.921875 7.84375 -31.671875q7.84375 -9.765633 26.46875 -9.765633q18.640625 0 26.40625 9.765633q7.765625 9.75 7.765625 31.671875q0 21.921875 -7.359375 31.84375q-7.359375 9.90625 -26.890625 9.90625q-19.515625 0 -26.875 -9.90625q-7.359375 -9.921875 -7.359375 -31.84375zm12.3125 -0.234375q0 17.515625 4.234375 24.5625q4.25 7.03125 17.765625 7.03125q13.53125 0 17.6875 -6.953125q4.15625 -6.96875 4.15625 -24.5625q0 -17.609375 -4.640625 -24.25q-4.640625 -6.640625 -17.203125 -6.640625q-12.546875 0 -17.28125 6.640625q-4.71875 6.640625 -4.71875 24.171875zm117.12067 -29.203125l-25.4375 0l0 38.234375q0 13.765625 2.0 18.09375q2.0 4.3125 9.53125 4.3125l14.234375 -0.96875l0.796875 9.921875q-10.71875 1.765625 -16.3125 1.765625q-12.484375 0 -17.28125 -6.078125q-4.796875 -6.09375 -4.796875 -23.203125l0 -42.078125l-11.375 0l0 -10.406258l11.375 0l0 -24.484375l11.828125 0l0 24.484375l25.4375 0l0 10.406258zm14.722534 69.59375l0 -80.00001l12.0 0l0 80.00001l-12.0 0zm0 -98.07813l0 -13.921875l12.0 0l0 13.921875l-12.0 0zm31.524414 57.921883q0 -21.921875 7.84375 -31.671875q7.84375 -9.765633 26.46875 -9.765633q18.640625 0 26.40625 9.765633q7.765625 9.75 7.765625 31.671875q0 21.921875 -7.359375 31.84375q-7.359375 9.90625 -26.890625 9.90625q-19.515625 0 -26.875 -9.90625q-7.359375 -9.921875 -7.359375 -31.84375zm12.3125 -0.234375q0 17.515625 4.234375 24.5625q4.25 7.03125 17.765625 7.03125q13.53125 0 17.6875 -6.953125q4.15625 -6.96875 4.15625 -24.5625q0 -17.609375 -4.640625 -24.25q-4.640625 -6.640625 -17.203125 -6.640625q-12.546875 0 -17.28125 6.640625q-4.71875 6.640625 -4.71875 24.171875zm87.68317 40.390625l-12.0 0l0 -80.00001l11.84375 0l0 5.59375q12.953125 -7.1875 24.796875 -7.1875q16.0 0 21.515625 8.640625q5.53125 8.640633 5.53125 30.718758l0 42.234375l-11.84375 0l0 -41.921875q0 -16.640625 -3.28125 -22.796875q-3.28125 -6.15625 -14.0 -6.15625q-5.125 0 -10.8125 1.515625q-5.671875 1.515625 -8.703125 2.953125l-3.046875 1.453125l0 64.953125z" fill-rule="nonzero"></path></g></svg>

