<?xml version="1.0" standalone="yes"?>

<svg version="1.1" viewBox="0.0 0.0 329.0997375328084 332.6115485564304" fill="none" stroke="none" stroke-linecap="square" stroke-miterlimit="10" xmlns="http://www.w3.org/2000/svg" xmlns:xlink="http://www.w3.org/1999/xlink"><clipPath id="p.0"><path d="m0 0l329.09973 0l0 332.61154l-329.09973 0l0 -332.61154z" clip-rule="nonzero"></path></clipPath><g clip-path="url(#p.0)"><path fill="#000000" fill-opacity="0.0" d="m0 0l329.09973 0l0 332.61154l-329.09973 0z" fill-rule="nonzero"></path><path fill="#e33e2b" d="m8.0679865 57.904034l93.6063 54.11024l-93.6063 54.110237z" fill-rule="nonzero"></path><path fill="#e33e2b" d="m101.674286 219.50905l-93.6063 -54.110245l93.6063 -54.110237z" fill-rule="nonzero"></path><path fill="#3a7cec" d="m101.674286 112.95634l-93.6063 -54.11024l93.6063 -54.110237z" fill-rule="nonzero"></path><path fill="#e33e2b" d="m8.0679865 164.52751l93.6063 54.11023l-93.6063 54.110245z" fill-rule="nonzero"></path><path fill="#3a7cec" d="m193.56839 166.20299l-93.60629 -54.11023l93.60629 -54.11024z" fill-rule="nonzero"></path><path fill="#3a7cec" d="m100.43976 4.735851l93.60629 54.110237l-93.60629 54.110233z" fill-rule="nonzero"></path><path fill="#b7d331" d="m319.0576 274.06927l-93.60631 -54.11023l93.60631 -54.11023z" fill-rule="nonzero"></path><path fill="#b7d331" d="m225.45128 112.46426l93.60631 54.110237l-93.60631 54.110245z" fill-rule="nonzero"></path><path fill="#b7d331" d="m225.45128 219.01698l93.60631 54.110245l-93.60631 54.11023z" fill-rule="nonzero"></path><path fill="#b7d331" d="m319.0576 167.4458l-93.60631 -54.11023l93.60631 -54.11024z" fill-rule="nonzero"></path><path fill="#f1b500" d="m133.55717 165.77032l93.60629 54.11023l-93.60629 54.11023z" fill-rule="nonzero"></path><path fill="#f1b500" d="m226.68582 327.23746l-93.60629 -54.11023l93.60629 -54.11023z" fill-rule="nonzero"></path></g></svg>

