<?xml version="1.0" standalone="yes"?>

<svg version="1.1" viewBox="0.0 0.0 227.9448818897638 228.1233595800525" fill="none" stroke="none" stroke-linecap="square" stroke-miterlimit="10" xmlns="http://www.w3.org/2000/svg" xmlns:xlink="http://www.w3.org/1999/xlink"><clipPath id="p.0"><path d="m0 0l227.94489 0l0 228.12335l-227.94489 0l0 -228.12335z" clip-rule="nonzero"></path></clipPath><g clip-path="url(#p.0)"><path fill="#000000" fill-opacity="0.0" d="m0 0l227.94489 0l0 228.12335l-227.94489 0z" fill-rule="nonzero"></path><path fill="#000000" fill-opacity="0.0" d="m10.746054 114.35754l0 0c0 -57.150604 46.32972 -103.48032 103.480316 -103.48032l0 0c27.444695 0 53.765312 10.90236 73.17164 30.308681c19.406326 19.406326 30.308685 45.72695 30.308685 73.17164l0 0c0 57.150597 -46.329727 103.48032 -103.48032 103.48032l0 0c-57.1506 0 -103.480316 -46.329727 -103.480316 -103.48032z" fill-rule="nonzero"></path><path stroke="#000000" stroke-width="16.0" stroke-linejoin="round" stroke-linecap="butt" d="m10.746054 114.35754l0 0c0 -57.150604 46.32972 -103.48032 103.480316 -103.48032l0 0c27.444695 0 53.765312 10.90236 73.17164 30.308681c19.406326 19.406326 30.308685 45.72695 30.308685 73.17164l0 0c0 57.150597 -46.329727 103.48032 -103.48032 103.48032l0 0c-57.1506 0 -103.480316 -46.329727 -103.480316 -103.48032z" fill-rule="nonzero"></path><path fill="#000000" d="m133.12573 82.83363l0 0c-2.6956635 1.5577393 -6.1430054 0.6348343 -7.6998367 -2.0613632l0 0l0 0c-0.7476196 -1.294754 -0.9503784 -2.833641 -0.5636673 -4.2781296c0.38671112 -1.4444809 1.3312073 -2.6762314 2.6257172 -3.424286l22.395584 -12.94162c2.6956787 -1.5577354 6.1430054 -0.6348305 7.6998444 2.0613632l0 0l0 0c1.556839 2.6961899 0.6336212 6.144684 -2.0620575 7.7024155z" fill-rule="nonzero"></path><path fill="#000000" d="m120.44422 67.47039l0 0c8.097359 0 14.689751 6.5641403 14.724541 14.661415l0 0l0 0c0.016708374 3.8884506 -1.5119629 7.6176376 -4.2497253 10.3671875c-2.7377625 2.7495499 -6.4603424 4.2942276 -10.348831 4.2942276l-14.109962 0c-8.097351 0 -14.689751 -6.5641327 -14.724541 -14.661415l0 0l0 0c-0.03479004 -8.097275 6.5012054 -14.661415 14.5985565 -14.661415z" fill-rule="nonzero"></path><path fill="#000000" d="m163.90785 63.018024l0 0c-2.0090942 2.009098 -5.2664795 2.009098 -7.275589 0l0 0l0 0c-0.964798 -0.9648018 -1.5068207 -2.2733574 -1.5068207 -3.6377945c0 -1.3644371 0.5420227 -2.6729927 1.5068207 -3.6377945l13.417328 -13.417324c2.0090942 -2.0091019 5.2664948 -2.0091019 7.275589 0l0 0l0 0c2.0091095 2.009098 2.0091095 5.266491 0 7.275589z" fill-rule="nonzero"></path><path fill="#000000" d="m113.88125 125.27364l0 0c-1.2227249 -4.560753 1.4805984 -9.259171 6.0380325 -10.494202l0 0l0 0c2.1885605 -0.5930786 4.520729 -0.2918396 6.483467 0.8374634c1.9627457 1.1292953 3.3952713 2.9941406 3.9824295 5.1842957l8.170563 30.476173c1.2227173 4.5607605 -1.4805908 9.259171 -6.03804 10.494202l0 0l0 0c-4.557434 1.2350311 -9.243172 -1.4609985 -10.465897 -6.021759z" fill-rule="nonzero"></path><path fill="#000000" d="m127.308 167.3057l0 0c-0.91046906 -3.4014282 1.1082458 -6.8991394 4.5089264 -7.8123627l0 0l0 0c1.6330719 -0.43855286 3.37294 -0.21026611 4.836853 0.63464355c1.463913 0.8448944 2.531952 2.2372131 2.9691772 3.8706207l7.3170776 27.335907c0.9104767 3.4014282 -1.1082458 6.8991394 -4.5089264 7.8123627l0 0l0 0c-3.4006805 0.91322327 -6.895569 -1.1038513 -7.8060303 -4.5052795z" fill-rule="nonzero"></path><path fill="#000000" d="m120.6706 87.51238l0 0c6.6883545 0 12.131477 5.4219437 12.15757 12.110237l0 0l0 0c0.012542725 3.2118378 -1.251358 6.292122 -3.513626 8.563232c-2.2622604 2.2711105 -5.337593 3.5470047 -8.549454 3.5470047l-14.519501 0l0 0c-6.688347 0 -12.131477 -5.421936 -12.15757 -12.110237l0 0l0 0c-0.02609253 -6.6882935 5.374733 -12.110237 12.06308 -12.110237z" fill-rule="nonzero"></path><path fill="#000000" d="m119.44576 103.38902l0 0c5.931679 0 10.761406 4.8085327 10.787498 10.740158l0 0l0 0c0.012542725 2.8484726 -1.1070099 5.580269 -3.1123352 7.5944366c-2.005333 2.0141754 -4.7321777 3.1457214 -7.580673 3.1457214l-12.094284 0l0 0c-5.931679 0 -10.761414 -4.8085327 -10.787506 -10.740158l0 0l0 0c-0.02609253 -5.9316254 4.7613373 -10.740158 10.693016 -10.740158z" fill-rule="nonzero"></path><path fill="#000000" d="m96.48169 120.16874l0 0c1.2463684 -4.6477814 6.0288315 -7.4214096 10.681946 -6.195076l0 0l0 0c2.234497 0.58890533 4.139717 2.040329 5.296524 4.0349655c1.156807 1.9946442 1.4704514 4.3691177 0.87192535 6.601059l-8.2739105 30.853935c-1.2463684 4.6477814 -6.028839 7.421417 -10.681946 6.1950836l0 0l0 0c-4.6531067 -1.2263336 -7.414818 -5.9882507 -6.1684494 -10.636032z" fill-rule="nonzero"></path><path fill="#000000" d="m103.187 53.20621l0 0c0 -5.670761 4.5970154 -10.288975 10.267715 -10.315067l0 0l0 0c2.7231674 -0.0125312805 5.3348007 1.0572395 7.260376 2.9739685c1.9255676 1.9167328 3.0073395 4.5234146 3.0073395 7.2466125l0 6.0785217c0 5.670761 -4.5970078 10.288979 -10.267715 10.315071l0 0l0 0c-5.6707 0.02609253 -10.267715 -4.54982 -10.267715 -10.220585z" fill-rule="nonzero"></path><path fill="#000000" d="m99.57458 73.289566l0 0c2.8416367 1.6393051 3.8197174 5.273773 2.1846085 8.117821l0 0l0 0c-0.78520966 1.3657608 -2.0803375 2.3628616 -3.6004868 2.7719498c-1.5201416 0.40909576 -3.1407776 0.1966629 -4.5053787 -0.5905533l-21.867004 -12.614754c-2.8416367 -1.6393051 -3.8197174 -5.273773 -2.1846085 -8.117821l0 0l0 0c1.635109 -2.8440514 5.264229 -3.820694 8.1058655 -2.1813965z" fill-rule="nonzero"></path><path fill="#000000" d="m86.7726 162.9835l0 0c0.92842865 -3.468521 4.4942703 -5.532959 7.9645386 -4.611023l0 0l0 0c1.6664734 0.4427185 3.0875854 1.5289917 3.9506989 3.0198212c0.86312103 1.4908447 1.0975418 3.264145 0.6516876 4.9297943l-7.2520294 27.092896c-0.92842865 3.468521 -4.4942703 5.532959 -7.964531 4.611023l0 0l0 0c-3.4702682 -0.9219208 -5.5308304 -4.481079 -4.602394 -7.9496155z" fill-rule="nonzero"></path><path fill="#000000" d="m77.0767 195.40761l14.67717 3.9685059l-2.0157547 7.5590515l-14.677162 -3.9685059z" fill-rule="nonzero"></path><path fill="#000000" d="m134.86057 199.75853l14.708664 -3.8740082l2.015747 7.5590515l-14.708664 3.8740082z" fill-rule="nonzero"></path><path fill="#000000" d="m71.00065 55.96198l0 0c2.1047745 2.1047707 2.1047745 5.517277 0 7.6220474l0 0l0 0c-1.0107422 1.010746 -2.381607 1.578579 -3.81102 1.578579c-1.4294128 0 -2.8002777 -0.56783295 -3.8110237 -1.578579l-13.070869 -13.070869c-2.1047668 -2.1047668 -2.1047668 -5.517277 0 -7.6220474l0 0l0 0c2.1047707 -2.1047668 5.517277 -2.1047668 7.6220474 0z" fill-rule="nonzero"></path></g></svg>

