<?xml version="1.0" standalone="yes"?>

<svg version="1.1" viewBox="0.0 0.0 969.2808398950132 336.4435695538058" fill="none" stroke="none" stroke-linecap="square" stroke-miterlimit="10" xmlns="http://www.w3.org/2000/svg" xmlns:xlink="http://www.w3.org/1999/xlink"><clipPath id="p.0"><path d="m0 0l969.2808 0l0 336.44357l-969.2808 0l0 -336.44357z" clip-rule="nonzero"></path></clipPath><g clip-path="url(#p.0)"><path fill="#000000" fill-opacity="0.0" d="m0 0l969.2808 0l0 336.44357l-969.2808 0z" fill-rule="nonzero"></path><path fill="#6fa8dc" d="m8.0679865 57.904034l93.6063 54.11024l-93.6063 54.110237z" fill-rule="nonzero"></path><path fill="#6fa8dc" d="m101.674286 219.50905l-93.6063 -54.110245l93.6063 -54.110237z" fill-rule="nonzero"></path><path fill="#9fc5e8" d="m101.674286 112.95634l-93.6063 -54.11024l93.6063 -54.110237z" fill-rule="nonzero"></path><path fill="#6fa8dc" d="m8.0679865 164.52751l93.6063 54.11023l-93.6063 54.110245z" fill-rule="nonzero"></path><path fill="#9fc5e8" d="m193.56839 166.20299l-93.60629 -54.11023l93.60629 -54.11024z" fill-rule="nonzero"></path><path fill="#9fc5e8" d="m100.43976 4.735851l93.60629 54.110237l-93.60629 54.110233z" fill-rule="nonzero"></path><path fill="#3d85c6" d="m319.0576 274.06927l-93.60631 -54.11023l93.60631 -54.11023z" fill-rule="nonzero"></path><path fill="#3d85c6" d="m225.45128 112.46426l93.60631 54.110237l-93.60631 54.110245z" fill-rule="nonzero"></path><path fill="#3d85c6" d="m225.45128 219.01698l93.60631 54.110245l-93.60631 54.11023z" fill-rule="nonzero"></path><path fill="#3d85c6" d="m319.0576 167.4458l-93.60631 -54.11023l93.60631 -54.11024z" fill-rule="nonzero"></path><path fill="#6fa8dc" d="m133.55717 165.77032l93.60629 54.11023l-93.60629 54.11023z" fill-rule="nonzero"></path><path fill="#6fa8dc" d="m226.68582 327.23746l-93.60629 -54.11023l93.60629 -54.11023z" fill-rule="nonzero"></path><path fill="#000000" fill-opacity="0.0" d="m223.53233 44.06756l1341.7008 0l0 326.17322l-1341.7008 0z" fill-rule="nonzero"></path><path fill="#ffffff" d="m240.93858 169.31631q0 -14.78125 2.015625 -23.765625q2.015625 -8.984375 7.296875 -13.609375q5.296875 -4.6250076 11.76564 -6.0468826q6.46875 -1.421875 16.796875 -1.421875q10.328125 0 15.53125 0.84375q5.21875 0.828125 10.25 3.8593826q5.046875 3.015625 7.234375 9.578125q2.1875 6.546875 2.1875 17.296875q0 20.5 -23.015625 20.5l-37.64064 0q0 15.625 3.5312653 20.921875q3.53125 5.28125 13.4375 5.28125q30.578125 0 42.0 -1.671875l0 9.40625q-16.625 4.703125 -42.0 4.703125q-16.968765 0 -23.187515 -9.734375q-6.203125 -9.75 -6.203125 -36.140625zm12.421875 -5.03125l37.64064 0q10.578125 0 10.578125 -8.234375q0 -12.9375 -3.78125 -16.046875q-3.78125 -3.109375 -17.71875 -3.109375q-17.3125 0 -20.671875 3.53125q-4.7031403 5.046875 -5.3750153 11.09375q-0.671875 6.046875 -0.671875 12.765625z" fill-rule="nonzero"></path><path fill="#9fc5e8" d="m324.76358 214.34756l32.25 -44.6875l-32.25 -44.515633l15.453125 0l24.203125 34.265633l24.859375 -34.265633l15.453125 0l-32.59375 45.015633l31.25 44.1875l-14.109375 0l-24.53125 -33.9375l-24.53125 33.9375l-15.453125 0zm87.36014 -76.9375l0 -9.421883l16.625 -3.015625l3.03125 -24.859375l9.40625 0l0 24.859375l26.046875 0l0 12.437508l-26.046875 0l0 45.015625q0 10.25 2.34375 14.203125q2.359375 3.9375 7.234375 5.125q13.78125 3.515625 14.953125 3.515625l0 8.90625l-14.78125 0q-22.1875 0 -22.1875 -31.75l0 -45.015625l-16.625 0z" fill-rule="nonzero"></path><path fill="#ffffff" d="m479.83084 103.80068l0 -12.421875l85.34372 0l0 12.421875l-36.96875 0l0 110.54688l-12.421875 0l0 -110.54688l-35.953094 0zm92.90085 21.34375l13.609375 0l26.375 70.89063l23.1875 -70.89063l13.4375 0l-9.078125 28.562508l19.5 42.328125l27.203125 -70.89063l13.609375 0l-34.09375 89.20313l-12.4375 0l-19.828125 -43.6875l-14.609375 43.6875l-13.4375 0l-33.4375 -89.20313zm139.61487 44.171883q0 -14.78125 2.015625 -23.765625q2.015625 -8.984375 7.296875 -13.609375q5.296875 -4.6250076 11.765625 -6.0468826q6.46875 -1.421875 16.796875 -1.421875q10.328125 0 15.53125 0.84375q5.21875 0.828125 10.25 3.8593826q5.046875 3.015625 7.234375 9.578125q2.1875 6.546875 2.1875 17.296875q0 20.5 -23.015625 20.5l-37.640625 0q0 15.625 3.53125 20.921875q3.53125 5.28125 13.4375 5.28125q30.578125 0 42.0 -1.671875l0 9.40625q-16.625 4.703125 -42.0 4.703125q-16.96875 0 -23.1875 -9.734375q-6.203125 -9.75 -6.203125 -36.140625zm12.421875 -5.03125l37.640625 0q10.578125 0 10.578125 -8.234375q0 -12.9375 -3.78125 -16.046875q-3.78125 -3.109375 -17.71875 -3.109375q-17.3125 0 -20.671875 3.53125q-4.703125 5.046875 -5.375 11.09375q-0.671875 6.046875 -0.671875 12.765625zm75.77814 5.03125q0 -14.78125 2.015625 -23.765625q2.015625 -8.984375 7.296875 -13.609375q5.296875 -4.6250076 11.765625 -6.0468826q6.46875 -1.421875 16.796875 -1.421875q10.328125 0 15.53125 0.84375q5.21875 0.828125 10.25 3.8593826q5.046875 3.015625 7.234375 9.578125q2.1875 6.546875 2.1875 17.296875q0 20.5 -23.015625 20.5l-37.640625 0q0 15.625 3.53125 20.921875q3.53125 5.28125 13.4375 5.28125q30.578125 0 42.0 -1.671875l0 9.40625q-16.625 4.703125 -42.0 4.703125q-16.96875 0 -23.1875 -9.734375q-6.203125 -9.75 -6.203125 -36.140625zm12.421875 -5.03125l37.640625 0q10.578125 0 10.578125 -8.234375q0 -12.9375 -3.78125 -16.046875q-3.78125 -3.109375 -17.71875 -3.109375q-17.3125 0 -20.671875 3.53125q-4.703125 5.046875 -5.375 11.09375q-0.671875 6.046875 -0.671875 12.765625zm77.45001 50.0625l0 -89.20313l8.734375 0l3.703125 10.406258q0.5 -0.15625 3.6875 -2.09375q3.203125 -1.9375 3.953125 -2.265625q0.75 -0.34375 3.609375 -1.9375q2.859375 -1.5937576 4.03125 -1.9218826q1.171875 -0.34375 3.859375 -1.34375q2.703125 -1.015625 4.375 -1.359375q5.375 -1.0 9.40625 -1.0q12.765625 0 20.15625 8.406258q7.390625 8.390625 7.390625 20.15625l0 62.15625l-12.421875 0l0 -62.15625q0 -7.90625 -4.203125 -12.015625q-4.203125 -4.109375 -10.75 -4.109375q-6.546875 0 -12.265625 1.34375q-5.71875 1.34375 -9.15625 2.765625q-3.4375 1.421875 -11.671875 5.453125l0 68.71875l-12.4375 0z" fill-rule="nonzero"></path></g></svg>

