<?xml version="1.0" standalone="yes"?>

<svg version="1.1" viewBox="0.0 0.0 923.2309711286089 517.3490813648294" fill="none" stroke="none" stroke-linecap="square" stroke-miterlimit="10" xmlns="http://www.w3.org/2000/svg" xmlns:xlink="http://www.w3.org/1999/xlink"><clipPath id="p.0"><path d="m0 0l923.23096 0l0 517.34906l-923.23096 0l0 -517.34906z" clip-rule="nonzero"></path></clipPath><g clip-path="url(#p.0)"><path fill="#000000" fill-opacity="0.0" d="m0 0l923.23096 0l0 517.34906l-923.23096 0z" fill-rule="nonzero"></path><path fill="#ffffff" fill-opacity="0.2077" d="m353.49738 41.804283l0 0c0 -13.092173 10.613312 -23.705477 23.705475 -23.705477l168.77805 0c6.2870483 0 12.31665 2.4975338 16.762268 6.9431744c4.4456787 4.4456387 6.9431763 10.47522 6.9431763 16.762302l0 54.44732c0 13.092171 -10.613281 23.705475 -23.705444 23.705475l-168.77805 0c-13.092163 0 -23.705475 -10.613304 -23.705475 -23.705475z" fill-rule="nonzero"></path><path stroke="#434343" stroke-width="4.0" stroke-linejoin="round" stroke-linecap="butt" d="m353.49738 41.804283l0 0c0 -13.092173 10.613312 -23.705477 23.705475 -23.705477l168.77805 0c6.2870483 0 12.31665 2.4975338 16.762268 6.9431744c4.4456787 4.4456387 6.9431763 10.47522 6.9431763 16.762302l0 54.44732c0 13.092171 -10.613281 23.705475 -23.705444 23.705475l-168.77805 0c-13.092163 0 -23.705475 -10.613304 -23.705475 -23.705475z" fill-rule="nonzero"></path><path fill="#ffffff" fill-opacity="0.2077" d="m213.69685 231.45126l0 0c0 -13.092163 10.6132965 -23.70546 23.705475 -23.70546l168.77803 0c6.287079 0 12.31665 2.497528 16.762299 6.943161c4.445648 4.445648 6.9431763 10.47522 6.9431763 16.762299l0 54.447327c0 13.092163 -10.613312 23.705475 -23.705475 23.705475l-168.77803 0c-13.092178 0 -23.705475 -10.613312 -23.705475 -23.705475z" fill-rule="nonzero"></path><path stroke="#434343" stroke-width="4.0" stroke-linejoin="round" stroke-linecap="butt" d="m213.69685 231.45126l0 0c0 -13.092163 10.6132965 -23.70546 23.705475 -23.70546l168.77803 0c6.287079 0 12.31665 2.497528 16.762299 6.943161c4.445648 4.445648 6.9431763 10.47522 6.9431763 16.762299l0 54.447327c0 13.092163 -10.613312 23.705475 -23.705475 23.705475l-168.77803 0c-13.092178 0 -23.705475 -10.613312 -23.705475 -23.705475z" fill-rule="nonzero"></path><path fill="#ffffff" fill-opacity="0.2077" d="m353.49738 421.09824l0 0c0 -13.092163 10.613312 -23.705475 23.705475 -23.705475l168.77805 0c6.2870483 0 12.31665 2.497528 16.762268 6.9431763c4.4456787 4.4456177 6.9431763 10.47522 6.9431763 16.762299l0 54.447327c0 13.092163 -10.613281 23.705475 -23.705444 23.705475l-168.77805 0c-13.092163 0 -23.705475 -10.613312 -23.705475 -23.705475z" fill-rule="nonzero"></path><path stroke="#434343" stroke-width="4.0" stroke-linejoin="round" stroke-linecap="butt" d="m353.49738 421.09824l0 0c0 -13.092163 10.613312 -23.705475 23.705475 -23.705475l168.77805 0c6.2870483 0 12.31665 2.497528 16.762268 6.9431763c4.4456787 4.4456177 6.9431763 10.47522 6.9431763 16.762299l0 54.447327c0 13.092163 -10.613281 23.705475 -23.705444 23.705475l-168.77805 0c-13.092163 0 -23.705475 -10.613312 -23.705475 -23.705475z" fill-rule="nonzero"></path><path fill="#ffffff" fill-opacity="0.2077" d="m493.34515 231.44995l0 0c0 -13.092163 10.613281 -23.70546 23.705444 -23.70546l168.77808 0c6.2870483 0 12.31665 2.497528 16.762268 6.943161c4.4456177 4.445648 6.9431763 10.47522 6.9431763 16.762299l0 54.447327c0 13.092163 -10.613281 23.705475 -23.705444 23.705475l-168.77808 0c-13.092163 0 -23.705444 -10.613312 -23.705444 -23.705475z" fill-rule="nonzero"></path><path stroke="#434343" stroke-width="4.0" stroke-linejoin="round" stroke-linecap="butt" d="m493.34515 231.44995l0 0c0 -13.092163 10.613281 -23.70546 23.705444 -23.70546l168.77808 0c6.2870483 0 12.31665 2.497528 16.762268 6.943161c4.4456177 4.445648 6.9431763 10.47522 6.9431763 16.762299l0 54.447327c0 13.092163 -10.613281 23.705475 -23.705444 23.705475l-168.77808 0c-13.092163 0 -23.705444 -10.613312 -23.705444 -23.705475z" fill-rule="nonzero"></path><path fill="#000000" fill-opacity="0.0" d="m461.59186 119.95708c0 21.947067 -34.95276 32.921707 -69.90552 43.89415c-34.95276 10.972443 -69.90549 21.942688 -69.90549 43.885376" fill-rule="nonzero"></path><path stroke="#434343" stroke-width="3.0" stroke-linejoin="round" stroke-linecap="butt" d="m461.59186 119.95707c0 21.947075 -34.95276 32.921715 -69.90552 43.894157c-17.47638 5.4862213 -34.95276 10.971893 -48.060028 17.828857c-3.276825 1.7142334 -6.2805786 3.5141754 -8.942993 5.4212494c-1.3312073 0.95355225 -2.5770874 1.9338684 -3.7290955 2.9436798c-0.28799438 0.2524414 -0.5701294 0.50671387 -0.84625244 0.7628937c-0.13806152 0.12809753 -0.2746277 0.25663757 -0.4096985 0.38568115l-0.2605896 0.25274658" fill-rule="evenodd"></path><path fill="#434343" stroke="#434343" stroke-width="3.0" stroke-linecap="butt" d="m324.95316 189.3385l-1.3067322 14.428986l10.275787 -10.213303z" fill-rule="evenodd"></path><path fill="#000000" fill-opacity="0.0" d="m461.59186 119.95708c0 21.94664 34.960632 32.920837 69.921265 43.89328c34.960632 10.972427 69.921265 21.943115 69.921265 43.886246" fill-rule="nonzero"></path><path stroke="#434343" stroke-width="3.0" stroke-linejoin="round" stroke-linecap="butt" d="m461.59186 119.95707c0 21.946632 34.960632 32.920845 69.921265 43.893288c17.480286 5.4862213 34.960632 10.971985 48.07086 17.829102c3.277588 1.7142792 6.2819824 3.5142822 8.945007 5.421402c1.3314819 0.95358276 2.5776978 1.9339142 3.7299194 2.9437408c0.28808594 0.25245667 0.57025146 0.5067444 0.8464966 0.76290894c0.13806152 0.12809753 0.2746582 0.2566681 0.40979004 0.38571167l0.2614746 0.25354004" fill-rule="evenodd"></path><path fill="#434343" stroke="#434343" stroke-width="3.0" stroke-linecap="butt" d="m589.29224 193.55486l10.276306 10.212723l-1.3074951 -14.428894z" fill-rule="evenodd"></path><path fill="#000000" fill-opacity="0.0" d="m601.43964 309.60275c0 21.94751 -34.960632 32.922577 -69.921265 43.89502c-34.960632 10.972443 -69.921265 21.94226 -69.921265 43.88452" fill-rule="nonzero"></path><path stroke="#434343" stroke-width="3.0" stroke-linejoin="round" stroke-linecap="butt" d="m601.43964 309.60275c0 21.94751 -34.960632 32.922577 -69.921265 43.89502c-17.480286 5.4862366 -34.960632 10.971802 -48.07086 17.828583c-3.2775574 1.7142029 -6.2819824 3.5140991 -8.945007 5.4211426c-1.3314819 0.9534912 -2.5776672 1.9338074 -3.72995 2.943573c-0.28805542 0.25247192 -0.57025146 0.50671387 -0.84646606 0.7628784c-0.13806152 0.1281128 -0.27468872 0.25665283 -0.40975952 0.38565063l-0.2609558 0.25308228" fill-rule="evenodd"></path><path fill="#434343" stroke="#434343" stroke-width="3.0" stroke-linecap="butt" d="m464.77103 378.98444l-1.3079834 14.428864l10.276672 -10.212402z" fill-rule="evenodd"></path><path fill="#000000" fill-opacity="0.0" d="m321.79135 309.60406c0 21.947083 34.95273 32.921722 69.90549 43.894165c34.95276 10.972443 69.90552 21.942688 69.90552 43.885376" fill-rule="nonzero"></path><path stroke="#434343" stroke-width="3.0" stroke-linejoin="round" stroke-linecap="butt" d="m321.79135 309.60406c0 21.947083 34.95273 32.921722 69.90549 43.894165c17.47638 5.4862366 34.95276 10.971924 48.06006 17.828827c3.276825 1.7142334 6.2805786 3.5141907 8.942993 5.4212646c1.3312073 0.9535217 2.577057 1.9338989 3.729065 2.943634c0.2880249 0.25247192 0.5701294 0.5067749 0.8463135 0.76293945c0.138031 0.12808228 0.27459717 0.2566223 0.40963745 0.38565063l0.2605896 0.25274658" fill-rule="evenodd"></path><path fill="#434343" stroke="#434343" stroke-width="3.0" stroke-linecap="butt" d="m449.461 383.20114l10.275757 10.213287l-1.3067322 -14.428955z" fill-rule="evenodd"></path></g></svg>

