<?xml version="1.0" standalone="yes"?>

<svg version="1.1" viewBox="0.0 0.0 408.1049868766404 229.28346456692913" fill="none" stroke="none" stroke-linecap="square" stroke-miterlimit="10" xmlns="http://www.w3.org/2000/svg" xmlns:xlink="http://www.w3.org/1999/xlink"><clipPath id="p.0"><path d="m0 0l408.10498 0l0 229.28346l-408.10498 0l0 -229.28346z" clip-rule="nonzero"></path></clipPath><g clip-path="url(#p.0)"><path fill="#000000" fill-opacity="0.0" d="m0 0l408.10498 0l0 229.28346l-408.10498 0z" fill-rule="nonzero"></path><path fill="#000000" fill-opacity="0.0" d="m100.57282 114.64231l0 0c0 -57.150604 46.32972 -103.480316 103.48032 -103.480316l0 0c27.444687 0 53.765305 10.902359 73.171616 30.308683c19.406342 19.406322 30.308685 45.726948 30.308685 73.17163l0 0c0 57.150597 -46.329712 103.48031 -103.4803 103.48031l0 0c-57.150604 0 -103.48032 -46.329712 -103.48032 -103.48031z" fill-rule="nonzero"></path><path stroke="#959493" stroke-width="16.0" stroke-linejoin="round" stroke-linecap="butt" d="m100.57282 114.64231l0 0c0 -57.150604 46.32972 -103.480316 103.48032 -103.480316l0 0c27.444687 0 53.765305 10.902359 73.171616 30.308683c19.406342 19.406322 30.308685 45.726948 30.308685 73.17163l0 0c0 57.150597 -46.329712 103.48031 -103.4803 103.48031l0 0c-57.150604 0 -103.48032 -46.329712 -103.48032 -103.48031z" fill-rule="nonzero"></path><path fill="#959493" d="m222.95251 83.118416l0 0c-2.6956787 1.5577316 -6.1430206 0.63482666 -7.6998444 -2.0613632l0 0l0 0c-0.7476196 -1.2947617 -0.9503784 -2.8336487 -0.5636749 -4.2781296c0.38671875 -1.4444885 1.3312073 -2.676239 2.6257172 -3.4242935l22.395584 -12.941616c2.6956787 -1.5577354 6.1430206 -0.6348343 7.6998444 2.0613594l0 0l0 0c1.556839 2.6961975 0.6336212 6.144684 -2.0620422 7.7024155z" fill-rule="nonzero"></path><path stroke="#959493" stroke-width="1.0" stroke-linejoin="round" stroke-linecap="butt" d="m222.95251 83.118416l0 0c-2.6956787 1.5577316 -6.1430206 0.63482666 -7.6998444 -2.0613632l0 0l0 0c-0.7476196 -1.2947617 -0.9503784 -2.8336487 -0.5636749 -4.2781296c0.38671875 -1.4444885 1.3312073 -2.676239 2.6257172 -3.4242935l22.395584 -12.941616c2.6956787 -1.5577354 6.1430206 -0.6348343 7.6998444 2.0613594l0 0l0 0c1.556839 2.6961975 0.6336212 6.144684 -2.0620422 7.7024155z" fill-rule="nonzero"></path><path fill="#959493" d="m210.271 67.755165l0 0c8.097351 0 14.689758 6.5641403 14.724548 14.661423l0 0l0 0c0.016708374 3.888443 -1.5119629 7.6176376 -4.2497253 10.3671875c-2.7377625 2.7495499 -6.4603577 4.2942276 -10.348846 4.2942276l-14.109955 0c-8.097351 0 -14.689758 -6.5641403 -14.724548 -14.661415l0 0l0 0c-0.03479004 -8.097282 6.5012054 -14.661423 14.5985565 -14.661423z" fill-rule="nonzero"></path><path stroke="#959493" stroke-width="1.0" stroke-linejoin="round" stroke-linecap="butt" d="m210.271 67.755165l0 0c8.097351 0 14.689758 6.5641403 14.724548 14.661423l0 0l0 0c0.016708374 3.888443 -1.5119629 7.6176376 -4.2497253 10.3671875c-2.7377625 2.7495499 -6.4603577 4.2942276 -10.348846 4.2942276l-14.109955 0c-8.097351 0 -14.689758 -6.5641403 -14.724548 -14.661415l0 0l0 0c-0.03479004 -8.097282 6.5012054 -14.661423 14.5985565 -14.661423z" fill-rule="nonzero"></path><path fill="#959493" d="m253.73463 63.3028l0 0c-2.0091095 2.009098 -5.2664948 2.009098 -7.275589 0l0 0l0 0c-0.96481323 -0.9648018 -1.5068359 -2.2733574 -1.5068359 -3.6377945c0 -1.3644371 0.5420227 -2.6729927 1.5068359 -3.6377945l13.417328 -13.417324c2.0090942 -2.009098 5.2664795 -2.009098 7.2755737 0l0 0l0 0c2.0090942 2.0091019 2.0090942 5.2664948 0 7.275593z" fill-rule="nonzero"></path><path stroke="#959493" stroke-width="1.0" stroke-linejoin="round" stroke-linecap="butt" d="m253.73463 63.3028l0 0c-2.0091095 2.009098 -5.2664948 2.009098 -7.275589 0l0 0l0 0c-0.96481323 -0.9648018 -1.5068359 -2.2733574 -1.5068359 -3.6377945c0 -1.3644371 0.5420227 -2.6729927 1.5068359 -3.6377945l13.417328 -13.417324c2.0090942 -2.009098 5.2664795 -2.009098 7.2755737 0l0 0l0 0c2.0090942 2.0091019 2.0090942 5.2664948 0 7.275593z" fill-rule="nonzero"></path><path fill="#959493" d="m203.70802 125.55842l0 0c-1.2227325 -4.560753 1.4805908 -9.259163 6.038025 -10.494194l0 0l0 0c2.188568 -0.59308624 4.5207367 -0.2918396 6.4834747 0.83745575c1.962738 1.1292953 3.3952637 2.9941483 3.9824371 5.1842957l8.1705475 30.476173c1.2227325 4.5607605 -1.4805908 9.259171 -6.038025 10.494202l0 0l0 0c-4.557434 1.2350311 -9.243179 -1.4609985 -10.465912 -6.021759z" fill-rule="nonzero"></path><path stroke="#959493" stroke-width="1.0" stroke-linejoin="round" stroke-linecap="butt" d="m203.70802 125.55842l0 0c-1.2227325 -4.560753 1.4805908 -9.259163 6.038025 -10.494194l0 0l0 0c2.188568 -0.59308624 4.5207367 -0.2918396 6.4834747 0.83745575c1.962738 1.1292953 3.3952637 2.9941483 3.9824371 5.1842957l8.1705475 30.476173c1.2227325 4.5607605 -1.4805908 9.259171 -6.038025 10.494202l0 0l0 0c-4.557434 1.2350311 -9.243179 -1.4609985 -10.465912 -6.021759z" fill-rule="nonzero"></path><path fill="#959493" d="m217.13477 167.59047l0 0c-0.9104614 -3.4014282 1.1082458 -6.8991394 4.5089417 -7.8123627l0 0l0 0c1.6330566 -0.43855286 3.3729248 -0.21026611 4.836838 0.63464355c1.463913 0.8448944 2.5319672 2.2372131 2.9691772 3.8706207l7.3170776 27.335907c0.9104767 3.4014282 -1.1082458 6.8991394 -4.5089264 7.8123627l0 0l0 0c-3.4006805 0.9132385 -6.8955536 -1.1038513 -7.8060303 -4.5052643z" fill-rule="nonzero"></path><path stroke="#959493" stroke-width="1.0" stroke-linejoin="round" stroke-linecap="butt" d="m217.13477 167.59047l0 0c-0.9104614 -3.4014282 1.1082458 -6.8991394 4.5089417 -7.8123627l0 0l0 0c1.6330566 -0.43855286 3.3729248 -0.21026611 4.836838 0.63464355c1.463913 0.8448944 2.5319672 2.2372131 2.9691772 3.8706207l7.3170776 27.335907c0.9104767 3.4014282 -1.1082458 6.8991394 -4.5089264 7.8123627l0 0l0 0c-3.4006805 0.9132385 -6.8955536 -1.1038513 -7.8060303 -4.5052643z" fill-rule="nonzero"></path><path fill="#959493" d="m210.49738 87.797165l0 0c6.6883545 0 12.131485 5.421936 12.1575775 12.110237l0 0l0 0c0.012527466 3.2118301 -1.251358 6.2921143 -3.513626 8.563225c-2.262268 2.2711105 -5.3376007 3.5470047 -8.549469 3.5470047l-14.519501 0l0 0c-6.688339 0 -12.13147 -5.421936 -12.157562 -12.1102295l0 0l0 0c-0.02609253 -6.688301 5.3747253 -12.110237 12.06308 -12.110237z" fill-rule="nonzero"></path><path stroke="#959493" stroke-width="1.0" stroke-linejoin="round" stroke-linecap="butt" d="m210.49738 87.797165l0 0c6.6883545 0 12.131485 5.421936 12.1575775 12.110237l0 0l0 0c0.012527466 3.2118301 -1.251358 6.2921143 -3.513626 8.563225c-2.262268 2.2711105 -5.3376007 3.5470047 -8.549469 3.5470047l-14.519501 0l0 0c-6.688339 0 -12.13147 -5.421936 -12.157562 -12.1102295l0 0l0 0c-0.02609253 -6.688301 5.3747253 -12.110237 12.06308 -12.110237z" fill-rule="nonzero"></path><path fill="#959493" d="m209.27254 103.673805l0 0c5.9316864 0 10.761414 4.8085327 10.787506 10.740158l0 0l0 0c0.012527466 2.848465 -1.1070099 5.580261 -3.1123505 7.5944366c-2.0053253 2.0141678 -4.7321777 3.1457214 -7.580673 3.1457214l-12.094284 0l0 0c-5.931671 0 -10.761414 -4.8085327 -10.787506 -10.740158l0 0l0 0c-0.02609253 -5.9316254 4.7613373 -10.740158 10.693024 -10.740158z" fill-rule="nonzero"></path><path stroke="#959493" stroke-width="1.0" stroke-linejoin="round" stroke-linecap="butt" d="m209.27254 103.673805l0 0c5.9316864 0 10.761414 4.8085327 10.787506 10.740158l0 0l0 0c0.012527466 2.848465 -1.1070099 5.580261 -3.1123505 7.5944366c-2.0053253 2.0141678 -4.7321777 3.1457214 -7.580673 3.1457214l-12.094284 0l0 0c-5.931671 0 -10.761414 -4.8085327 -10.787506 -10.740158l0 0l0 0c-0.02609253 -5.9316254 4.7613373 -10.740158 10.693024 -10.740158z" fill-rule="nonzero"></path><path fill="#959493" d="m186.30846 120.45352l0 0c1.2463684 -4.6477814 6.028839 -7.421417 10.681946 -6.1950836l0 0l0 0c2.234497 0.58890533 4.1397247 2.040329 5.296524 4.0349655c1.1568146 1.9946442 1.470459 4.3691177 0.871933 6.601059l-8.2739105 30.853935c-1.2463684 4.6477814 -6.028839 7.421417 -10.681946 6.1950836l0 0l0 0c-4.6531067 -1.2263336 -7.41481 -5.9882507 -6.168457 -10.636032z" fill-rule="nonzero"></path><path stroke="#959493" stroke-width="1.0" stroke-linejoin="round" stroke-linecap="butt" d="m186.30846 120.45352l0 0c1.2463684 -4.6477814 6.028839 -7.421417 10.681946 -6.1950836l0 0l0 0c2.234497 0.58890533 4.1397247 2.040329 5.296524 4.0349655c1.1568146 1.9946442 1.470459 4.3691177 0.871933 6.601059l-8.2739105 30.853935c-1.2463684 4.6477814 -6.028839 7.421417 -10.681946 6.1950836l0 0l0 0c-4.6531067 -1.2263336 -7.41481 -5.9882507 -6.168457 -10.636032z" fill-rule="nonzero"></path><path fill="#959493" d="m193.01376 53.49099l0 0c0 -5.670765 4.5970154 -10.288979 10.267715 -10.315071l0 0l0 0c2.723175 -0.012527466 5.3348083 1.0572395 7.260376 2.9739723c1.9255676 1.916729 3.0073547 4.5234146 3.0073547 7.2466087l0 6.0785255c0 5.670765 -4.5970154 10.288975 -10.267731 10.315067l0 0l0 0c-5.6707 0.02609253 -10.267715 -4.54982 -10.267715 -10.220581z" fill-rule="nonzero"></path><path stroke="#959493" stroke-width="1.0" stroke-linejoin="round" stroke-linecap="butt" d="m193.01376 53.49099l0 0c0 -5.670765 4.5970154 -10.288979 10.267715 -10.315071l0 0l0 0c2.723175 -0.012527466 5.3348083 1.0572395 7.260376 2.9739723c1.9255676 1.916729 3.0073547 4.5234146 3.0073547 7.2466087l0 6.0785255c0 5.670765 -4.5970154 10.288975 -10.267731 10.315067l0 0l0 0c-5.6707 0.02609253 -10.267715 -4.54982 -10.267715 -10.220581z" fill-rule="nonzero"></path><path fill="#959493" d="m189.40135 73.57435l0 0c2.841629 1.6392975 3.8197174 5.2737656 2.1846008 8.117813l0 0l0 0c-0.785202 1.3657608 -2.0803375 2.3628616 -3.6004791 2.7719574c-1.5201416 0.40908813 -3.1407776 0.19665527 -4.5053864 -0.5905609l-21.867004 -12.614754c-2.841629 -1.6392975 -3.8197174 -5.273773 -2.1846008 -8.117821l0 0l0 0c1.6351013 -2.8440475 5.264221 -3.8206902 8.1058655 -2.1813927z" fill-rule="nonzero"></path><path stroke="#959493" stroke-width="1.0" stroke-linejoin="round" stroke-linecap="butt" d="m189.40135 73.57435l0 0c2.841629 1.6392975 3.8197174 5.2737656 2.1846008 8.117813l0 0l0 0c-0.785202 1.3657608 -2.0803375 2.3628616 -3.6004791 2.7719574c-1.5201416 0.40908813 -3.1407776 0.19665527 -4.5053864 -0.5905609l-21.867004 -12.614754c-2.841629 -1.6392975 -3.8197174 -5.273773 -2.1846008 -8.117821l0 0l0 0c1.6351013 -2.8440475 5.264221 -3.8206902 8.1058655 -2.1813927z" fill-rule="nonzero"></path><path fill="#959493" d="m176.59937 163.26828l0 0c0.9284363 -3.468521 4.494278 -5.5329437 7.9645386 -4.611023l0 0l0 0c1.6664734 0.4427185 3.0875854 1.5289917 3.950714 3.0198364c0.8631134 1.4908295 1.0975342 3.2641296 0.65167236 4.929779l-7.2520294 27.092896c-0.928421 3.468521 -4.4942627 5.532959 -7.9645233 4.611023l0 0l0 0c-3.4702606 -0.9219208 -5.5308228 -4.481079 -4.6024017 -7.9496z" fill-rule="nonzero"></path><path stroke="#959493" stroke-width="1.0" stroke-linejoin="round" stroke-linecap="butt" d="m176.59937 163.26828l0 0c0.9284363 -3.468521 4.494278 -5.5329437 7.9645386 -4.611023l0 0l0 0c1.6664734 0.4427185 3.0875854 1.5289917 3.950714 3.0198364c0.8631134 1.4908295 1.0975342 3.2641296 0.65167236 4.929779l-7.2520294 27.092896c-0.928421 3.468521 -4.4942627 5.532959 -7.9645233 4.611023l0 0l0 0c-3.4702606 -0.9219208 -5.5308228 -4.481079 -4.6024017 -7.9496z" fill-rule="nonzero"></path><path fill="#959493" d="m166.90347 195.69238l14.67717 3.9685059l-2.015747 7.5590515l-14.67717 -3.9685059z" fill-rule="nonzero"></path><path stroke="#959493" stroke-width="1.0" stroke-linejoin="round" stroke-linecap="butt" d="m166.90347 195.69238l14.67717 3.9685059l-2.015747 7.5590515l-14.67717 -3.9685059z" fill-rule="nonzero"></path><path fill="#959493" d="m224.68733 200.0433l14.708664 -3.8740082l2.015747 7.5590515l-14.708664 3.8740082z" fill-rule="nonzero"></path><path stroke="#959493" stroke-width="1.0" stroke-linejoin="round" stroke-linecap="butt" d="m224.68733 200.0433l14.708664 -3.8740082l2.015747 7.5590515l-14.708664 3.8740082z" fill-rule="nonzero"></path><path fill="#959493" d="m160.82742 56.246754l0 0c2.1047668 2.1047707 2.1047668 5.517277 0 7.6220474l0 0l0 0c-1.0107422 1.010746 -2.381607 1.578579 -3.81102 1.578579c-1.4294128 0 -2.8002777 -0.56783295 -3.8110352 -1.578579l-13.070862 -13.070866c-2.1047668 -2.1047707 -2.1047668 -5.517277 0 -7.6220474l0 0l0 0c2.1047668 -2.1047707 5.517273 -2.1047707 7.622055 0z" fill-rule="nonzero"></path><path stroke="#959493" stroke-width="1.0" stroke-linejoin="round" stroke-linecap="butt" d="m160.82742 56.246754l0 0c2.1047668 2.1047707 2.1047668 5.517277 0 7.6220474l0 0l0 0c-1.0107422 1.010746 -2.381607 1.578579 -3.81102 1.578579c-1.4294128 0 -2.8002777 -0.56783295 -3.8110352 -1.578579l-13.070862 -13.070866c-2.1047668 -2.1047707 -2.1047668 -5.517277 0 -7.6220474l0 0l0 0c2.1047668 -2.1047707 5.517273 -2.1047707 7.622055 0z" fill-rule="nonzero"></path></g></svg>

