<?xml version="1.0" standalone="yes"?>

<svg version="1.1" viewBox="0.0 0.0 1265.989501312336 719.8740157480315" fill="none" stroke="none" stroke-linecap="square" stroke-miterlimit="10" xmlns="http://www.w3.org/2000/svg" xmlns:xlink="http://www.w3.org/1999/xlink"><clipPath id="p.0"><path d="m0 0l1265.9895 0l0 719.874l-1265.9895 0l0 -719.874z" clip-rule="nonzero"></path></clipPath><g clip-path="url(#p.0)"><path fill="#000000" fill-opacity="0.0" d="m0 0l1265.9895 0l0 719.874l-1265.9895 0z" fill-rule="nonzero"></path><path fill="#959493" d="m920.5608 231.13428l5.755432 1.2333984l5.138733 2.2603455l4.5219727 3.0834808l3.9053345 3.9053192l3.083496 4.522003l2.2616577 5.1387177l1.0269165 5.7553864l0.20513916 2.8770752l-0.20513916 3.2886047l-1.4384766 6.372101l-2.878357 5.7554016l-3.9053345 4.933563l-2.4667969 2.0552368l0 -19.73169l-0.20513916 -4.3168945l-2.4667969 -7.605484l-4.727112 -5.3438416l-6.5772095 -2.878357l-3.9053345 -0.41026306l-3.9053345 0.41026306l-6.7836304 2.878357l-4.9335938 5.5489655l-2.671936 7.40036l-0.20513916 4.3168945l0 19.321442l-2.2616577 -2.056549l-3.6988525 -4.7271423l-2.878357 -5.7554016l-1.4385376 -6.1669617l0 -3.2886047l0 -2.8770752l1.2333984 -5.7553864l2.260376 -5.1387177l3.083496 -4.522003l3.9052734 -3.9053192l4.5220337 -3.0834808l5.138672 -2.2603455l5.755432 -1.2333984zm-2.8770142 19.321426l3.0821533 0.20513916l3.9066162 2.6719208l2.671936 6.372101l0 2.878357l0 76.874176l0.20513916 1.6449585l2.2616577 2.2603455l1.6436768 0.2064209l1.6449585 -0.2064209l2.260315 -2.2603455l0.20513916 -1.6449585l0 -11.099243l0.2064209 -3.083496l2.671936 -4.7271423l4.1104736 -3.083496l4.5219727 -1.2333679l2.2616577 -0.20513916l2.260376 0.20513916l3.9066162 1.6449585l2.8770142 3.0821533l1.6449585 3.9053345l0.20513916 2.2616577l0 15.004547l0.20513916 1.6449585l2.2616577 2.2603455l1.6436768 0.20645142l1.6449585 -0.20645142l2.260315 -2.2603455l0.20648193 -1.6449585l0 -6.7823486l0.20513916 -2.2616577l1.6449585 -3.9053345l2.8770142 -3.0834656l3.9053345 -1.6436768l2.2616577 -0.2064209l2.260315 0.2064209l3.9053345 1.6436768l3.083496 3.0834656l1.6449585 3.9053345l0.20513916 2.2616577l0 17.676453l0.20513916 1.6449585l2.2616577 2.260376l1.6436157 0.2064209l1.6449585 -0.2064209l2.260376 -2.260376l0.2064209 -1.6449585l0 -10.482544l3.2886353 -1.2333984l3.4937134 -0.6166992l1.8500977 0.20513916l3.2886353 1.2333984l2.671936 2.2616577l1.4398193 3.083496l0.20513916 1.4385071l-0.20513916 17.882904l-2.2616577 37.409485l-2.260376 15.827698l-1.8500977 8.015747l-1.2333984 2.6719055l-3.083435 6.166992l-7.60553 11.099243l-7.810608 6.372101l-6.3721313 3.2886047l-7.810608 2.2616577l-9.455566 1.2320862l-5.549011 0.20645142l-5.550232 -0.20645142l-9.865845 -1.2320862l-8.838928 -2.4667969l-8.017029 -3.7001648l-10.894104 -6.9888l-13.56604 -12.332642l-6.9888306 -6.9888l-3.2885742 -3.2886047l-27.33722 -28.16034l-7.4003296 -8.2221985l-1.8500977 -2.0552063l-2.0552368 -5.1387024l-0.20513916 -2.8770447l0.20513916 -2.6732483l2.2616577 -5.1387024l1.8500977 -2.2603455l2.0552368 -1.8500977l5.138672 -2.0552063l2.671936 -0.20513916l2.8770142 0.20513916l5.138733 2.0552063l2.0565186 1.8500977l22.815186 23.843445l0.8218384 0.8218384l2.4667969 0.6166992l1.2333984 -0.41027832l1.0282593 -0.6166992l1.4385376 -1.8500977l0 -1.2333679l-0.20513916 -126.000916l0 -2.2616577l1.2333984 -4.3155518l2.465454 -3.4950562l3.9066162 -2.0552216l2.671936 -0.20513916zm0 -27.543625l-3.9053345 0.20513916l-7.1952515 1.4385223l-6.5772095 2.878357l-5.9605103 3.905304l-4.9335938 4.9335785l-4.1104126 5.960541l-2.671936 6.5772247l-1.6449585 7.4003754l0 3.698883l0.20513916 5.1387024l2.6732178 9.455566l4.932251 8.2221985l6.7836914 6.57724l3.9052734 2.6719055l0.20513916 86.536194l-15.826355 -16.649506l-3.289917 -2.8770447l-8.015808 -3.4950562l-4.5219727 -0.20513916l-4.3168945 0.20513916l-8.015747 3.4950562l-3.4950562 2.8770447l-2.8770752 3.493744l-3.2885742 8.017059l-0.2064209 8.632446l3.289917 8.017059l2.8770142 3.4937744l7.4003906 8.017059l27.542297 28.365448l3.2886353 3.493744l7.1952515 7.193939l14.387817 12.950623l11.922363 7.604187l8.837585 3.9066162l9.8671875 2.8770447l11.099243 1.4385376l6.166931 0.2064209l6.3708496 -0.2064209l10.894104 -1.4385376l9.045288 -2.8770447l7.604187 -3.9066162l6.3721313 -4.932251l5.138672 -5.755432l6.166992 -9.455566l3.4937744 -6.57724l1.6449585 -3.7001953l2.4667969 -10.277405l2.4667358 -19.733002l2.0552368 -41.725037l0 -10.072296l-0.2064209 -3.0834656l-2.8770752 -5.960541l-4.727112 -4.522003l-6.3721313 -2.4667969l-3.4950562 -0.41156006l-2.671875 0.2064209l-4.3168945 1.2320862l-0.41027832 -3.698883l-3.083496 -6.372101l-5.138672 -4.933563l-6.7836914 -2.4667969l-3.6988525 -0.4102478l-3.289917 0.20513916l-6.1657104 2.2616577l-2.671875 1.8487854l-1.0282593 -2.671936l-3.4937744 -4.522003l-4.7284546 -3.2886353l-5.54895 -1.8500671l-3.083496 -0.20513916l-3.7001953 0.20513916l-6.9887695 2.2616577l-3.083496 1.8500977l0 -19.93814l4.1117554 -2.4667969l6.9887695 -6.783661l5.138733 -8.2221985l2.671936 -9.660706l0.20513916 -5.1387024l-0.20513916 -3.698883l-1.4385376 -7.4003754l-2.878357 -6.5772247l-3.9053345 -5.960541l-5.138672 -4.9335785l-5.755432 -3.905304l-6.7823486 -2.878357l-7.1952515 -1.4385223l-3.6988525 -0.20513916z" fill-rule="nonzero"></path><path fill="#959493" d="m514.76965 495.13754l-1.3077393 1.1057129l-17.444733 17.671478l-0.8718262 1.104065l-0.4359131 1.9872437l0.4359131 1.1057129l0.4359131 1.104065l2.1812134 1.104065l12.864349 0l0 30.704224l0.4359131 2.2097778l3.270996 3.3138428l2.1795654 0.22076416l2.1812134 -0.22076416l3.269287 -3.3138428l0.43756104 -2.2097778l0 -30.704224l12.86438 0l2.1795654 -1.104065l0.4359131 -1.104065l0.43585205 -1.1057129l-0.43585205 -2.428894l-0.8718262 -0.88323975l-17.443115 -17.450653l-1.3076782 -1.1057129z" fill-rule="nonzero"></path><path fill="#959493" d="m516.5133 415.39517l-2.1795654 0.44161987l-3.270996 3.3138123l-0.4359131 2.2097778l0 28.273651l-11.55661 0l-1.3077393 0.2208252l-2.1812134 1.9889526l-0.4359131 1.104065l-0.4359131 1.3248291l0.4359131 2.6513977l0.8718262 1.104065l17.444733 17.892242l1.3077393 1.104065l3.4889526 0l1.3076782 -1.104065l17.443115 -17.671448l0.8718262 -1.1040344l0.43585205 -2.872223l-0.43585205 -1.3248291l-0.4359131 -1.104065l-2.1795654 -1.9889526l-1.3093872 -0.2208252l-11.554993 0l0 -28.273651l-0.43756104 -2.2097778l-3.269287 -3.3138123l-2.1812134 -0.44161987z" fill-rule="nonzero"></path><path fill="#959493" d="m573.85876 428.20715l6.104431 1.5456543l7.631714 4.197052l8.503601 6.8484497l4.5787354 4.197052l4.1428223 4.859497l8.721497 12.149536l10.46521 17.671478l1.7453003 3.534607l1.0897217 1.3248596l2.835083 1.1040344l1.7436523 -0.44161987l1.3077393 -0.8832092l1.3093872 -3.0930176l-0.21960449 -1.5456543l-4.1411743 -11.266327l-0.6555176 -2.6497192l0.4359131 -5.52359l1.3093872 -2.428894l1.3077393 -2.2097778l4.360779 -3.5329285l2.39917 -1.1057434l1.9616089 -0.44161987l2.1812134 -0.22079468l3.4872437 0.44161987l5.8881226 3.9762268l1.5256958 3.3138428l5.4505615 15.240875l0.8734741 1.5473328l3.0513916 1.5456543l1.7453003 -0.44161987l1.5256958 -0.88323975l1.3076782 -3.092987l-0.4359131 -1.7664795l-2.397461 -6.8484497l-0.6538696 -2.2080994l0.21795654 -4.638672l0.8718262 -2.2097778l1.0897827 -1.9872742l3.270935 -3.0930176l2.1795654 -0.8832092l1.9632568 -0.66244507l1.9616089 -0.22250366l3.7069092 0.44332886l5.668518 4.197052l1.5273438 3.3121338l6.540283 17.892273l0.8734741 1.5473328l3.0513916 1.5456543l1.7453003 -0.44161987l1.5256958 -0.88323975l1.3077393 -3.092987l-0.21795654 -1.7664795l-3.9248657 -10.603882l2.39917 -2.428894l3.0530396 -1.5473633l1.5256958 -0.44161987l1.7436523 -0.22079468l2.835083 0.22079468l4.5786743 3.0930176l1.3077393 2.2080994l6.106079 18.114746l11.336975 38.656708l3.7069092 16.78656l0.8718262 8.835754l-0.21795654 3.0930176l-0.8718262 7.5108643l-3.7069092 13.69519l-5.232544 9.498169l-5.4505615 5.742676l-6.7599487 5.3027954l-8.939453 4.638672l-5.4505615 2.20813l-6.541992 2.2097778l-12.644714 2.428894l-6.3240356 0.22076416l-6.3223267 -0.44158936l-12.646423 -2.2080688l-18.316528 -6.8484497l-12.86438 -6.184387l-4.5786743 -2.2097168l-37.501587 -18.333923l-10.248901 -5.5219116l-2.833435 -1.5473633l-3.9248657 -4.4178467l-1.9632568 -5.5219116l0.21795654 -5.963501l1.0914307 -3.0930176l1.0897827 -1.9873047l2.833435 -3.0930176l3.4889526 -2.430542l4.1428223 -1.104065l2.1812134 -0.2208252l3.269287 0.2208252l3.0530396 1.3248901l31.397217 15.684143l1.3093872 0.4416504l2.6154785 -0.2208252l0.8734741 -0.88323975l1.0897827 -0.88323975l0.4359131 -2.430603l-0.21795654 -1.3248291l-2.1812134 -6.4068604l-11.11908 -29.377686l-8.939453 -20.764465l-4.5787354 -8.614929l-2.835083 -4.8594666l-5.8864746 -7.2900696l-8.067627 -7.7316895l-4.796692 -3.0913086l-4.5787354 -3.0930176l-3.0530396 -3.5346375l-1.3077393 -2.4305725l-0.8734741 -5.0802917l0.6555176 -2.6497192l0.8718262 -2.2097778l3.2693481 -3.3138123l1.9632568 -0.88323975l2.6171265 -0.66241455zm0.21795654 -8.614929l-3.0530396 0.2208252l-2.6171265 0.66241455l-4.1428223 1.9889832l-5.8864136 5.963501l-1.5256958 4.1970825l-1.0914307 4.4178467l1.3093872 9.056549l2.397522 4.197052l1.9632568 2.8721924l5.232544 4.417877l2.835083 1.766449l4.360779 3.0930176l6.9762573 6.4051514l5.0145874 6.40683l2.39917 4.197052l6.104431 11.928741l12.210449 29.377686l4.360779 11.928772l-22.02179 -10.823059l-2.39917 -1.1057129l-5.0146484 -1.1040039l-2.6154175 -0.2208252l-3.4889526 0.2208252l-6.3240356 1.9889526l-5.668518 3.532898l-4.360718 5.0803223l-1.7436523 3.0930176l-1.7453003 4.638672l-0.21795654 9.498169l3.0530396 8.614868l6.10437 7.069275l4.1428223 2.2097778l10.248901 5.5219116l37.719543 18.554688l4.5803833 2.2097778l13.082275 6.4051514l19.840576 7.069275l13.736145 2.6497192l7.195862 0.44158936l6.9779053 -0.2208252l14.172058 -2.8704834l7.195862 -2.430603l6.3223877 -2.428894l10.247192 -5.5236206l8.067688 -6.184326l6.106018 -6.8484497l4.5787354 -7.288391l3.0530396 -7.7316284l2.833435 -11.707947l1.0897827 -7.9525146l0.21960449 -4.1970215l-1.3093872 -11.264648l-4.5787354 -20.98529l-13.082275 -43.074585l-3.7069092 -9.939758l-1.0897827 -2.430603l-3.270996 -4.197052l-4.360779 -3.0913086l-5.232544 -1.5473633l-2.835083 -0.22079468l-3.2693481 0.22079468l-3.0530396 0.88323975l-2.835083 1.3265381l-2.833435 2.2080994l-1.3093872 -2.6497192l-3.9248657 -4.4178467l-4.796631 -3.0930176l-5.4505615 -1.7664795l-3.0530396 -0.22250366l-3.4889526 0.22250366l-3.4872437 1.1040344l-3.270996 1.5456848l-5.232605 4.4178467l-1.9632568 2.872223l-3.0530396 -3.0930176l-8.065979 -3.7554321l-4.360779 -0.44161987l-3.7069092 0.22079468l-3.270996 1.1040344l-3.9248657 1.5473633l-6.540283 5.5219116l-2.39917 3.3138123l-1.0897827 2.2080994l-0.8718262 2.4305725l-3.4889526 -5.3010864l-7.195862 -9.720673l-3.7069092 -3.9745483l-6.9761963 -6.8484497l-12.646423 -8.614929l-8.939453 -3.534607l-4.1428223 -0.2208252z" fill-rule="nonzero"></path><path fill="#959493" d="m198.12013 110.2971l-1.7929382 0.9962921l-0.79855347 0.7966461l-6.9759216 10.164421l-6.177353 10.166321l-0.5989227 1.5932922l0.9962921 2.9907684l1.3955688 0.7966461l10.56369 5.1829834l9.964767 5.580353l0.99819946 0.5970001l1.7929382 0l0.99627686 -0.5970001l0.7966461 -0.79855347l0.39927673 -2.192215l-0.19963074 -0.9962921l-0.9962921 -4.5840607l-0.99627686 -4.5840607l8.768845 -1.7929382l17.539612 -2.9907684l17.739243 -1.7929382l17.936966 -0.39927673l17.739258 0.5989075l17.936981 1.5933075l17.539612 2.9907684l17.539612 3.9851532l8.768829 2.5914764l1.9944763 0.39927673l3.9851685 -1.9944763l0.99627686 -1.7929382l0.399292 -1.992569l-2.3918762 -3.7874146l-1.9925537 -0.9962921l-8.968506 -2.591484l-18.13852 -4.1847916l-18.336243 -2.9907608l-18.535889 -1.9925766l-18.53592 -0.5989151l-18.535889 0.5989151l-18.535889 1.7929382l-18.336258 2.9907608l-8.968491 1.9925766l-1.3955536 -5.779991l-1.3955688 -5.7799835l-0.19773865 -1.1959305l-1.3955688 -1.5951996l-1.1959229 -0.397377z" fill-rule="nonzero"></path><path fill="#959493" d="m265.8848 155.9381l3.9870605 0.39927673l3.5877686 1.7929382l2.5914917 2.9907684l0.7966614 1.992569l28.700287 78.727646l0.7966614 1.3955688l2.5914917 1.3936615l1.5951843 -0.39738464l1.3955688 -0.5989075l1.3936768 -2.7892303l-0.1977539 -1.5951996l-19.134796 -62.383957l-0.5970154 -1.992569l0.39736938 -4.184799l1.7948608 -3.9870453l3.1884766 -2.7911224l2.1922302 -0.9962921l1.7929382 -0.39736938l1.7948303 -0.199646l3.188507 0.39738464l5.382599 3.5877686l1.3936768 2.7911224l23.119965 70.75545l0.19961548 0l0 0.19772339l3.587799 11.162613l0.79663086 1.5932922l2.7911377 1.1959381l1.5951843 -0.19773865l1.3936768 -0.79855347l1.3955688 -2.5914917l-0.399292 -1.5932922l-1.1959229 -4.1866913l-1.9925537 -5.9777374l1.7948303 -1.7948303l2.3918457 -1.1959229l1.5932922 -0.5970154l2.9907837 0.19963074l2.789215 1.3936615l2.1921997 2.192215l0.598938 1.5951996l5.7799683 16.144058l10.364075 34.879578l3.1884766 15.347382l0.7966614 7.7725525l-0.19772339 2.7892456l-0.79855347 6.7781677l-3.188507 12.556274l-4.9833374 8.37146l-4.783722 5.1810913l-6.3769836 4.7836914l-8.1718445 4.184784l-4.9833374 1.9944763l-7.572937 2.3899536l-13.951813 2.7911377l-6.57666 0.199646l-5.580353 0l-10.962952 -2.1922302l-10.962982 -3.98703l-11.160706 -6.377014l-5.7799683 -4.1867065l-2.7892456 -1.9925537l-5.182953 -5.380707l-4.783722 -6.3789062l-3.985138 -7.373291l-3.1904144 -7.774475l-1.7929382 -7.9721985l-0.19963074 -7.9721985l1.5951996 -7.572937l1.5933075 -3.5877686l1.3955688 -2.7911377l1.3955383 -2.1921997l10.164429 25.911072l0.7966614 1.3955688l2.7911072 1.3936462l1.5952148 -0.39736938l1.3936462 -0.79855347l1.1959229 -2.789215l-0.39736938 -1.5951843l-12.556244 -32.288116l0 -0.19961548l-31.691086 -81.51688l-0.7966461 -2.3918457l0 -4.5840607l1.5932922 -3.9870605l2.9907684 -2.988861l2.192215 -0.7966461l2.192215 -0.5989075l4.184784 0.19963074l3.7874146 2.192215l2.7911224 3.5877686l0.9962921 2.391861l27.903671 68.96059l0.79663086 1.3955688l2.7911377 1.1959229l1.5932922 -0.39926147l1.3955688 -0.5970154l1.1959229 -2.7911377l-0.199646 -1.5932922l-29.099579 -87.09912l-0.5970154 -1.992569l0 -4.1866913l1.7929382 -3.5877838l2.7911377 -2.789215l1.9925537 -0.9962921l1.9925842 -0.5989227zm1.3955688 -7.9721985l-2.988861 0.199646l-2.9907532 0.99627686l-3.587799 1.3955688l-5.181076 4.9833374l-2.988861 6.376999l-0.19963074 7.1755524l0.9962921 3.5877838l1.992569 5.7799835l-1.992569 -1.3955536l-4.1866913 -1.7929382l-4.38443 -0.79855347l-4.7837067 0.5989075l-2.192215 0.5970154l-3.5877686 1.5951996l-5.380722 5.181076l-2.789215 6.578537l0 7.7725677l1.1940155 3.9851532l30.694794 79.5262l-2.7911224 3.3881226l-3.7855225 6.377014l-1.5951996 3.3881226l-1.7929382 7.574829l-0.5989075 8.569214l1.1959229 8.968506l2.5914917 9.170013l3.9851532 8.968506l5.7799835 8.569214l7.175537 7.574829l4.38443 3.3881226l6.3789062 4.584076l12.157013 6.9759216l12.1588745 4.38443l12.356628 2.1921997l6.1792603 0.199646l7.1736755 -0.199646l15.547028 -2.988861l8.171814 -2.7911377l5.580353 -2.1921997l9.567413 -4.9833374l7.373291 -5.580353l5.582245 -6.177368l3.9851685 -6.5785522l2.9907532 -6.975891l2.5895996 -10.56369l0.79855347 -7.1736755l0.19772339 -3.7874146l-1.1959229 -10.164398l-4.184784 -18.93518l-11.959259 -38.864716l-3.188507 -8.968491l-0.99627686 -2.391861l-2.988861 -3.7874146l-3.9870605 -2.7911224l-4.584076 -1.3955536l-2.5914612 -0.19773865l-2.5895996 0.19773865l-2.7911377 0.7985382l-1.9925537 0.7966614l-2.1922302 1.5951996l-20.927734 -63.979156l-1.1959229 -2.5914917l-3.587799 -4.38443l-4.5840454 -3.3881378l-5.380707 -1.5951996l-2.7911377 -0.19773865l-3.188507 0.19773865l-3.1903992 0.9981842l-3.985138 1.5933075l-5.779999 5.9796143l-1.7948303 3.5877838l-2.1922302 -6.1792603l-1.1959229 -2.7892303l-3.3881226 -4.5840607l-4.38443 -3.1903992l-5.1810913 -1.7929382l-2.9907532 -0.199646z" fill-rule="nonzero"></path></g></svg>

